ply
format ascii 1.0
comment VCGLIB generated
element vertex 24
property float x
property float y
property float z
property float nx
property float ny
property float nz
element face 12
property list uchar int vertex_indices
end_header
0.5 0.5 0.5 0 0 1 
-0.5 0.5 0.5 0 0 1 
0.5 -0.5 0.5 0 0 1 
-0.5 -0.5 0.5 0 0 1 
0.5 0.5 -0.5 1 0 0 
-0.5 0.5 -0.5 0 1 0 
0.5 -0.5 -0.5 1 0 0 
-0.5 -0.5 -0.5 0 0 -1 
0.5 0.5 0.5 1 0 0 
0.5 -0.5 0.5 1 0 0 
0.5 0.5 0.5 0 1 0 
0.5 0.5 -0.5 0 1 0 
-0.5 0.5 0.5 0 1 0 
-0.5 0.5 -0.5 0 0 -1 
0.5 -0.5 -0.5 0 0 -1 
0.5 0.5 -0.5 -0 -0 -1 
-0.5 -0.5 -0.5 0 -1 0 
0.5 -0.5 -0.5 0 -1 0 
-0.5 -0.5 0.5 0 -1 0 
0.5 -0.5 0.5 -0 -1 -0 
-0.5 -0.5 -0.5 -1 0 0 
-0.5 -0.5 0.5 -1 0 0 
-0.5 0.5 -0.5 -1 0 0 
-0.5 0.5 0.5 -1 -0 -0 
3 0 1 2 
3 3 2 1 
3 8 9 4 
3 6 4 9 
3 10 11 12 
3 5 12 11 
3 7 13 14 
3 15 14 13 
3 16 17 18 
3 19 18 17 
3 20 21 22 
3 23 22 21 
