ply
format ascii 1.0
comment VCGLIB generated
element vertex 612
property float x
property float y
property float z
element face 204
property list uchar int vertex_indices
end_header
-106.119 96.271 -372.003 
-157.446 107.755 -343.109 
-123.111 122.268 -313.488 
-70.6555 101.327 -360.991 
-219.259 60.3647 -359.043 
-250.016 68.7161 -326.95 
-189.001 109.482 -340.858 
-146.021 94.0085 -373.214 
-244.113 53.4527 -337.079 
-144.967 67.807 -383.832 
-33.1538 64.0867 -389.804 
-178.372 40.6404 -365.326 
-165.985 23.1306 -353.35 
-196.909 30.1252 -343.039 
-233.774 48.4055 -339.245 
-19.0374 116.204 -306.932 
42.9806 129.305 -294.276 
6.55861 104.085 -349.466 
-63.6967 47.7643 -389.679 
-15.5573 37.2226 -365.497 
-9.24205 135.587 -232.969 
49.6289 132.867 -225.223 
-96.201 -15.2239 -301.052 
-164.389 -9.55361 -265.81 
-223.805 94.7172 -286.391 
-295.212 79.4245 -259.056 
-300.517 83.149 -239.381 
-258.347 101.524 -243.738 
-294.279 54.0789 -248.696 
-300.249 60.0646 -247.81 
41.8233 37.4073 -153.123 
-97.467 -15.1989 -147.741 
-110.975 -13.9089 -196.417 
-239.381 16.0966 -218.948 
-257.667 20.2856 -254.88 
-79.0632 16.2345 -90.1083 
-36.8851 50.9486 -75.0251 
-109.643 45.5273 -91.2181 
-209.132 14.6105 -125.527 
18.342 92.7484 -113.225 
-26.3463 75.0928 -378.328 
-293.205 62.8293 -211.494 
-299.102 61.6858 -238.583 
-294.03 57.3867 -237.01 
-287.086 56.8077 -207.899 
11.5671 56.4894 -384.761 
43.3077 104.636 -349.452 
-225.448 66.8688 -139.967 
-283.802 46.8207 -167.177 
-20.5833 46.6978 -80.638 
-57.2137 19.4863 -86.3534 
-0.585007 47.6027 -93.4453 
-12.0219 58.9694 -86.8885 
-21.3328 62.2403 -82.0592 
-227.289 5.66001 -169.354 
-99.9536 -0.835594 -115.421 
-87.2171 57.7691 -96.5293 
-196.22 100.005 -161.613 
-295.124 74.4469 -197.941 
-274.453 96.9982 -185.572 
-284.471 93.9236 -204.553 
-299.012 75.9896 -211.593 
49.7817 79.5046 -122.505 
90.9567 111.081 -248.722 
84.2166 123.4 -245.857 
-253.577 110.874 -186.951 
14.9695 50.6717 -381.25 
75.5348 113.532 -313.759 
65.2806 117.454 -309.687 
-80.0582 1.01245 -113.224 
60.441 97.8543 -355.168 
-184.579 121.155 -205.381 
-154.65 133.25 -237.48 
-113.931 -14.3142 -146.254 
-0.651375 42.2295 -357.348 
64.6421 89.0811 -356.442 
90.8671 91.4161 -246.623 
68.0222 69.9499 -288.963 
51.4368 61.4695 -127.382 
-135.834 37.3884 -100.25 
-60.5464 32.8291 -79.693 
-46.4772 30.8601 -80.6526 
-35.5357 18.8415 -141.131 
-16.889 37.9227 -89.9088 
-69.5482 -7.16986 -306.791 
17.584 89.1596 -369.2 
38.8724 72.2188 -378.351 
41.4717 66.1322 -376.694 
18.8967 55.9826 -330.691 
34.6795 58.054 -362.249 
8.87547 46.6293 -372.366 
0.593811 47.7525 -376.336 
79.8485 104.439 -314.591 
82.1623 97.7681 -179.58 
68.186 120.276 -173.066 
81.4783 78.1964 -181.045 
-37.6252 106.028 -171.768 
-11.3788 37.837 -231.997 
63.1911 52.5409 -191.4 
-71.3716 -2.07779 -213.971 
68.6895 81.9649 -325.646 
-72.494 28.6377 -371.465 
-201.535 107.126 -270.64 
-223.95 117.477 -227.634 
-106.119 96.271 -372.003 
-123.111 122.268 -313.488 
-219.259 60.3647 -359.043 
-189.001 109.482 -340.858 
-250.016 68.7161 -326.95 
-219.259 60.3647 -359.043 
-146.021 94.0085 -373.214 
-106.119 96.271 -372.003 
-144.967 67.807 -383.832 
-106.119 96.271 -372.003 
-144.967 67.807 -383.832 
-219.259 60.3647 -359.043 
-144.967 67.807 -383.832 
-219.259 60.3647 -359.043 
-146.021 94.0085 -373.214 
-178.372 40.6404 -365.326 
-178.372 40.6404 -365.326 
-196.909 30.1252 -343.039 
-165.985 23.1306 -353.35 
-63.6967 47.7643 -389.679 
-165.985 23.1306 -353.35 
-178.372 40.6404 -365.326 
42.9806 129.305 -294.276 
-19.0374 116.204 -306.932 
42.9806 129.305 -294.276 
-9.24205 135.587 -232.969 
-165.985 23.1306 -353.35 
-165.985 23.1306 -353.35 
-164.389 -9.55361 -265.81 
-196.909 30.1252 -343.039 
-223.805 94.7172 -286.391 
-300.517 83.149 -239.381 
-233.774 48.4055 -339.245 
-233.774 48.4055 -339.245 
-300.249 60.0646 -247.81 
-244.113 53.4527 -337.079 
-35.5357 18.8415 -141.131 
51.4368 61.4695 -127.382 
-164.389 -9.55361 -265.81 
-164.389 -9.55361 -265.81 
-239.381 16.0966 -218.948 
-109.643 45.5273 -91.2181 
-60.5464 32.8291 -79.693 
-70.6555 101.327 -360.991 
-33.1538 64.0867 -389.804 
-70.6555 101.327 -360.991 
-33.1538 64.0867 -389.804 
-106.119 96.271 -372.003 
-293.205 62.8293 -211.494 
-294.03 57.3867 -237.01 
-299.102 61.6858 -238.583 
-300.517 83.149 -239.381 
-295.212 79.4245 -259.056 
-299.102 61.6858 -238.583 
-295.212 79.4245 -259.056 
-300.249 60.0646 -247.81 
-26.3463 75.0928 -378.328 
-33.1538 64.0867 -389.804 
-26.3463 75.0928 -378.328 
-70.6555 101.327 -360.991 
6.55861 104.085 -349.466 
-26.3463 75.0928 -378.328 
6.55861 104.085 -349.466 
-146.021 94.0085 -373.214 
-189.001 109.482 -340.858 
-157.446 107.755 -343.109 
-146.021 94.0085 -373.214 
-157.446 107.755 -343.109 
-106.119 96.271 -372.003 
-135.834 37.3884 -100.25 
-109.643 45.5273 -91.2181 
-0.585007 47.6027 -93.4453 
-0.585007 47.6027 -93.4453 
-20.5833 46.6978 -80.638 
-12.0219 58.9694 -86.8885 
-36.8851 50.9486 -75.0251 
-12.0219 58.9694 -86.8885 
-36.8851 50.9486 -75.0251 
-20.5833 46.6978 -80.638 
-209.132 14.6105 -125.527 
-99.9536 -0.835594 -115.421 
-109.643 45.5273 -91.2181 
-109.643 45.5273 -91.2181 
-196.22 100.005 -161.613 
-225.448 66.8688 -139.967 
-295.124 74.4469 -197.941 
-284.471 93.9236 -204.553 
-295.124 74.4469 -197.941 
-299.012 75.9896 -211.593 
-293.205 62.8293 -211.494 
-295.124 74.4469 -197.941 
-293.205 62.8293 -211.494 
-37.6252 106.028 -171.768 
-87.2171 57.7691 -96.5293 
-21.3328 62.2403 -82.0592 
-37.6252 106.028 -171.768 
-21.3328 62.2403 -82.0592 
18.342 92.7484 -113.225 
68.186 120.276 -173.066 
18.342 92.7484 -113.225 
68.186 120.276 -173.066 
49.7817 79.5046 -122.505 
-274.453 96.9982 -185.572 
-284.471 93.9236 -204.553 
-96.201 -15.2239 -301.052 
-69.5482 -7.16986 -306.791 
-15.5573 37.2226 -365.497 
-36.8851 50.9486 -75.0251 
-60.5464 32.8291 -79.693 
-36.8851 50.9486 -75.0251 
-46.4772 30.8601 -80.6526 
-20.5833 46.6978 -80.638 
75.5348 113.532 -313.759 
90.9567 111.081 -248.722 
-21.3328 62.2403 -82.0592 
-87.2171 57.7691 -96.5293 
-109.643 45.5273 -91.2181 
-21.3328 62.2403 -82.0592 
-109.643 45.5273 -91.2181 
-36.8851 50.9486 -75.0251 
-79.0632 16.2345 -90.1083 
-80.0582 1.01245 -113.224 
-79.0632 16.2345 -90.1083 
-99.9536 -0.835594 -115.421 
84.2166 123.4 -245.857 
42.9806 129.305 -294.276 
84.2166 123.4 -245.857 
42.9806 129.305 -294.276 
49.6289 132.867 -225.223 
-21.3328 62.2403 -82.0592 
-12.0219 58.9694 -86.8885 
49.7817 79.5046 -122.505 
-21.3328 62.2403 -82.0592 
49.7817 79.5046 -122.505 
18.342 92.7484 -113.225 
-72.494 28.6377 -371.465 
-96.201 -15.2239 -301.052 
-165.985 23.1306 -353.35 
-63.6967 47.7643 -389.679 
-33.1538 64.0867 -389.804 
11.5671 56.4894 -384.761 
-63.6967 47.7643 -389.679 
11.5671 56.4894 -384.761 
0.593811 47.7525 -376.336 
11.5671 56.4894 -384.761 
8.87547 46.6293 -372.366 
11.5671 56.4894 -384.761 
49.7817 79.5046 -122.505 
-12.0219 58.9694 -86.8885 
-0.585007 47.6027 -93.4453 
49.7817 79.5046 -122.505 
-0.585007 47.6027 -93.4453 
51.4368 61.4695 -127.382 
11.5671 56.4894 -384.761 
-26.3463 75.0928 -378.328 
17.584 89.1596 -369.2 
11.5671 56.4894 -384.761 
17.584 89.1596 -369.2 
-283.802 46.8207 -167.177 
-225.448 66.8688 -139.967 
-274.453 96.9982 -185.572 
-283.802 46.8207 -167.177 
-274.453 96.9982 -185.572 
-295.124 74.4469 -197.941 
-274.453 96.9982 -185.572 
-225.448 66.8688 -139.967 
-196.22 100.005 -161.613 
-274.453 96.9982 -185.572 
-196.22 100.005 -161.613 
-253.577 110.874 -186.951 
-253.577 110.874 -186.951 
-184.579 121.155 -205.381 
-253.577 110.874 -186.951 
-196.22 100.005 -161.613 
-37.6252 106.028 -171.768 
-9.24205 135.587 -232.969 
-37.6252 106.028 -171.768 
-154.65 133.25 -237.48 
-184.579 121.155 -205.381 
-154.65 133.25 -237.48 
-9.24205 135.587 -232.969 
-19.0374 116.204 -306.932 
-154.65 133.25 -237.48 
-19.0374 116.204 -306.932 
-123.111 122.268 -313.488 
6.55861 104.085 -349.466 
-70.6555 101.327 -360.991 
-123.111 122.268 -313.488 
6.55861 104.085 -349.466 
-123.111 122.268 -313.488 
-19.0374 116.204 -306.932 
-293.205 62.8293 -211.494 
-287.086 56.8077 -207.899 
-283.802 46.8207 -167.177 
-99.9536 -0.835594 -115.421 
-227.289 5.66001 -169.354 
-99.9536 -0.835594 -115.421 
-113.931 -14.3142 -146.254 
-99.9536 -0.835594 -115.421 
-97.467 -15.1989 -147.741 
-80.0582 1.01245 -113.224 
-110.975 -13.9089 -196.417 
-113.931 -14.3142 -146.254 
-227.289 5.66001 -169.354 
-110.975 -13.9089 -196.417 
-227.289 5.66001 -169.354 
-239.381 16.0966 -218.948 
-300.249 60.0646 -247.81 
-294.279 54.0789 -248.696 
-294.03 57.3867 -237.01 
-300.249 60.0646 -247.81 
-294.03 57.3867 -237.01 
-299.102 61.6858 -238.583 
-97.467 -15.1989 -147.741 
-113.931 -14.3142 -146.254 
-110.975 -13.9089 -196.417 
-97.467 -15.1989 -147.741 
-110.975 -13.9089 -196.417 
82.1623 97.7681 -179.58 
49.7817 79.5046 -122.505 
81.4783 78.1964 -181.045 
49.7817 79.5046 -122.505 
51.4368 61.4695 -127.382 
-293.205 62.8293 -211.494 
-299.012 75.9896 -211.593 
-300.517 83.149 -239.381 
-293.205 62.8293 -211.494 
-300.517 83.149 -239.381 
-299.102 61.6858 -238.583 
-164.389 -9.55361 -265.81 
-96.201 -15.2239 -301.052 
-110.975 -13.9089 -196.417 
-71.3716 -2.07779 -213.971 
-110.975 -13.9089 -196.417 
-96.201 -15.2239 -301.052 
-71.3716 -2.07779 -213.971 
-96.201 -15.2239 -301.052 
-69.5482 -7.16986 -306.791 
-0.651375 42.2295 -357.348 
-71.3716 -2.07779 -213.971 
-69.5482 -7.16986 -306.791 
38.8724 72.2188 -378.351 
14.9695 50.6717 -381.25 
38.8724 72.2188 -378.351 
14.9695 50.6717 -381.25 
11.5671 56.4894 -384.761 
-284.471 93.9236 -204.553 
-258.347 101.524 -243.738 
-300.517 83.149 -239.381 
-284.471 93.9236 -204.553 
-300.517 83.149 -239.381 
-299.012 75.9896 -211.593 
-154.65 133.25 -237.48 
-123.111 122.268 -313.488 
-201.535 107.126 -270.64 
-123.111 122.268 -313.488 
-157.446 107.755 -343.109 
-223.805 94.7172 -286.391 
-189.001 109.482 -340.858 
-250.016 68.7161 -326.95 
6.55861 104.085 -349.466 
42.9806 129.305 -294.276 
65.2806 117.454 -309.687 
6.55861 104.085 -349.466 
65.2806 117.454 -309.687 
43.3077 104.636 -349.452 
65.2806 117.454 -309.687 
75.5348 113.532 -313.759 
43.3077 104.636 -349.452 
75.5348 113.532 -313.759 
75.5348 113.532 -313.759 
79.8485 104.439 -314.591 
75.5348 113.532 -313.759 
64.6421 89.0811 -356.442 
60.441 97.8543 -355.168 
90.8671 91.4161 -246.623 
68.6895 81.9649 -325.646 
79.8485 104.439 -314.591 
90.8671 91.4161 -246.623 
79.8485 104.439 -314.591 
90.9567 111.081 -248.722 
-250.016 68.7161 -326.95 
-244.113 53.4527 -337.079 
-300.249 60.0646 -247.81 
-250.016 68.7161 -326.95 
-300.249 60.0646 -247.81 
-295.212 79.4245 -259.056 
-196.909 30.1252 -343.039 
-164.389 -9.55361 -265.81 
-257.667 20.2856 -254.88 
-196.909 30.1252 -343.039 
-257.667 20.2856 -254.88 
-233.774 48.4055 -339.245 
-233.774 48.4055 -339.245 
-257.667 20.2856 -254.88 
-294.279 54.0789 -248.696 
-257.667 20.2856 -254.88 
-239.381 16.0966 -218.948 
-294.03 57.3867 -237.01 
-257.667 20.2856 -254.88 
-294.03 57.3867 -237.01 
-294.279 54.0789 -248.696 
-239.381 16.0966 -218.948 
-227.289 5.66001 -169.354 
-287.086 56.8077 -207.899 
-239.381 16.0966 -218.948 
-287.086 56.8077 -207.899 
-294.03 57.3867 -237.01 
-227.289 5.66001 -169.354 
-209.132 14.6105 -125.527 
-283.802 46.8207 -167.177 
-227.289 5.66001 -169.354 
-283.802 46.8207 -167.177 
-287.086 56.8077 -207.899 
-233.774 48.4055 -339.245 
-244.113 53.4527 -337.079 
-219.259 60.3647 -359.043 
-233.774 48.4055 -339.245 
-219.259 60.3647 -359.043 
-178.372 40.6404 -365.326 
-223.805 94.7172 -286.391 
-250.016 68.7161 -326.95 
-295.212 79.4245 -259.056 
-196.22 100.005 -161.613 
-87.2171 57.7691 -96.5293 
-37.6252 106.028 -171.768 
-196.22 100.005 -161.613 
-37.6252 106.028 -171.768 
-184.579 121.155 -205.381 
-144.967 67.807 -383.832 
-33.1538 64.0867 -389.804 
-63.6967 47.7643 -389.679 
-144.967 67.807 -383.832 
-63.6967 47.7643 -389.679 
-178.372 40.6404 -365.326 
-201.535 107.126 -270.64 
-223.95 117.477 -227.634 
-184.579 121.155 -205.381 
-201.535 107.126 -270.64 
-184.579 121.155 -205.381 
-154.65 133.25 -237.48 
-0.651375 42.2295 -357.348 
-71.3716 -2.07779 -213.971 
18.8967 55.9826 -330.691 
-71.3716 -2.07779 -213.971 
8.87547 46.6293 -372.366 
14.9695 50.6717 -381.25 
34.6795 58.054 -362.249 
14.9695 50.6717 -381.25 
41.4717 66.1322 -376.694 
90.8671 91.4161 -246.623 
81.4783 78.1964 -181.045 
90.8671 91.4161 -246.623 
63.1911 52.5409 -191.4 
68.0222 69.9499 -288.963 
-79.0632 16.2345 -90.1083 
-60.5464 32.8291 -79.693 
-135.834 37.3884 -100.25 
-79.0632 16.2345 -90.1083 
-135.834 37.3884 -100.25 
-209.132 14.6105 -125.527 
-57.2137 19.4863 -86.3534 
-46.4772 30.8601 -80.6526 
-60.5464 32.8291 -79.693 
-57.2137 19.4863 -86.3534 
-60.5464 32.8291 -79.693 
-79.0632 16.2345 -90.1083 
-209.132 14.6105 -125.527 
-135.834 37.3884 -100.25 
-225.448 66.8688 -139.967 
-209.132 14.6105 -125.527 
-225.448 66.8688 -139.967 
-283.802 46.8207 -167.177 
-35.5357 18.8415 -141.131 
-71.3716 -2.07779 -213.971 
41.8233 37.4073 -153.123 
-71.3716 -2.07779 -213.971 
-11.3788 37.837 -231.997 
41.8233 37.4073 -153.123 
-0.585007 47.6027 -93.4453 
-16.889 37.9227 -89.9088 
-35.5357 18.8415 -141.131 
-97.467 -15.1989 -147.741 
-71.3716 -2.07779 -213.971 
-35.5357 18.8415 -141.131 
-97.467 -15.1989 -147.741 
-35.5357 18.8415 -141.131 
-80.0582 1.01245 -113.224 
-16.889 37.9227 -89.9088 
-20.5833 46.6978 -80.638 
-46.4772 30.8601 -80.6526 
-16.889 37.9227 -89.9088 
-46.4772 30.8601 -80.6526 
-57.2137 19.4863 -86.3534 
-35.5357 18.8415 -141.131 
-16.889 37.9227 -89.9088 
-57.2137 19.4863 -86.3534 
-35.5357 18.8415 -141.131 
-57.2137 19.4863 -86.3534 
-80.0582 1.01245 -113.224 
38.8724 72.2188 -378.351 
17.584 89.1596 -369.2 
43.3077 104.636 -349.452 
38.8724 72.2188 -378.351 
43.3077 104.636 -349.452 
60.441 97.8543 -355.168 
41.4717 66.1322 -376.694 
38.8724 72.2188 -378.351 
60.441 97.8543 -355.168 
41.4717 66.1322 -376.694 
60.441 97.8543 -355.168 
64.6421 89.0811 -356.442 
34.6795 58.054 -362.249 
41.4717 66.1322 -376.694 
64.6421 89.0811 -356.442 
34.6795 58.054 -362.249 
64.6421 89.0811 -356.442 
68.6895 81.9649 -325.646 
-11.3788 37.837 -231.997 
18.8967 55.9826 -330.691 
68.0222 69.9499 -288.963 
-11.3788 37.837 -231.997 
68.0222 69.9499 -288.963 
63.1911 52.5409 -191.4 
6.55861 104.085 -349.466 
43.3077 104.636 -349.452 
17.584 89.1596 -369.2 
0.593811 47.7525 -376.336 
8.87547 46.6293 -372.366 
-0.651375 42.2295 -357.348 
0.593811 47.7525 -376.336 
-0.651375 42.2295 -357.348 
-15.5573 37.2226 -365.497 
68.6895 81.9649 -325.646 
64.6421 89.0811 -356.442 
79.8485 104.439 -314.591 
75.5348 113.532 -313.759 
65.2806 117.454 -309.687 
84.2166 123.4 -245.857 
84.2166 123.4 -245.857 
68.186 120.276 -173.066 
82.1623 97.7681 -179.58 
84.2166 123.4 -245.857 
82.1623 97.7681 -179.58 
90.9567 111.081 -248.722 
82.1623 97.7681 -179.58 
81.4783 78.1964 -181.045 
90.8671 91.4161 -246.623 
82.1623 97.7681 -179.58 
90.8671 91.4161 -246.623 
90.9567 111.081 -248.722 
68.186 120.276 -173.066 
84.2166 123.4 -245.857 
49.6289 132.867 -225.223 
-9.24205 135.587 -232.969 
-37.6252 106.028 -171.768 
68.186 120.276 -173.066 
-9.24205 135.587 -232.969 
68.186 120.276 -173.066 
49.6289 132.867 -225.223 
41.8233 37.4073 -153.123 
63.1911 52.5409 -191.4 
81.4783 78.1964 -181.045 
41.8233 37.4073 -153.123 
81.4783 78.1964 -181.045 
51.4368 61.4695 -127.382 
63.1911 52.5409 -191.4 
41.8233 37.4073 -153.123 
-11.3788 37.837 -231.997 
18.8967 55.9826 -330.691 
34.6795 58.054 -362.249 
68.6895 81.9649 -325.646 
18.8967 55.9826 -330.691 
68.6895 81.9649 -325.646 
68.0222 69.9499 -288.963 
-0.651375 42.2295 -357.348 
8.87547 46.6293 -372.366 
34.6795 58.054 -362.249 
-0.651375 42.2295 -357.348 
34.6795 58.054 -362.249 
18.8967 55.9826 -330.691 
-15.5573 37.2226 -365.497 
-72.494 28.6377 -371.465 
-63.6967 47.7643 -389.679 
-15.5573 37.2226 -365.497 
-63.6967 47.7643 -389.679 
0.593811 47.7525 -376.336 
-72.494 28.6377 -371.465 
-15.5573 37.2226 -365.497 
-96.201 -15.2239 -301.052 
-201.535 107.126 -270.64 
-157.446 107.755 -343.109 
-189.001 109.482 -340.858 
-201.535 107.126 -270.64 
-189.001 109.482 -340.858 
-223.805 94.7172 -286.391 
-223.95 117.477 -227.634 
-201.535 107.126 -270.64 
-223.805 94.7172 -286.391 
-223.95 117.477 -227.634 
-223.805 94.7172 -286.391 
-258.347 101.524 -243.738 
-253.577 110.874 -186.951 
-223.95 117.477 -227.634 
-258.347 101.524 -243.738 
-253.577 110.874 -186.951 
-258.347 101.524 -243.738 
-284.471 93.9236 -204.553 
3 0 1 2 
3 104 105 3 
3 4 5 6 
3 106 107 7 
3 108 109 8 
3 9 110 111 
3 112 113 10 
3 114 11 115 
3 116 117 118 
3 119 12 13 
3 120 121 14 
3 15 16 17 
3 18 101 122 
3 123 124 125 
3 126 127 20 
3 128 129 21 
3 130 22 23 
3 131 132 133 
3 24 25 26 
3 134 135 27 
3 136 28 29 
3 137 138 139 
3 82 30 78 
3 140 141 51 
3 142 32 33 
3 143 144 34 
3 37 79 80 
3 145 146 36 
3 94 96 39 
3 147 40 148 
3 149 150 151 
3 41 42 43 
3 152 153 44 
3 154 155 156 
3 157 158 159 
3 160 45 161 
3 162 163 164 
3 165 166 85 
3 167 168 169 
3 170 171 172 
3 47 173 174 
3 175 52 49 
3 176 177 83 
3 178 53 179 
3 180 181 182 
3 38 54 55 
3 183 184 35 
3 185 56 57 
3 186 187 188 
3 58 59 60 
3 189 190 61 
3 191 192 193 
3 194 195 48 
3 196 197 198 
3 199 200 201 
3 202 203 62 
3 204 205 93 
3 206 65 207 
3 84 208 19 
3 209 210 74 
3 211 212 81 
3 213 214 215 
3 67 64 63 
3 216 217 92 
3 218 219 220 
3 221 222 223 
3 69 50 224 
3 225 226 227 
3 228 68 229 
3 230 231 232 
3 233 234 235 
3 236 237 238 
3 239 240 241 
3 242 243 244 
3 245 246 91 
3 90 247 248 
3 249 250 66 
3 251 252 253 
3 254 255 256 
3 257 258 259 
3 260 261 86 
3 262 263 264 
3 265 266 267 
3 268 269 270 
3 271 272 273 
3 71 103 274 
3 275 276 277 
3 278 279 72 
3 280 281 282 
3 283 284 285 
3 286 287 288 
3 289 290 291 
3 292 293 294 
3 295 296 297 
3 73 298 299 
3 300 301 31 
3 302 303 304 
3 305 306 307 
3 308 309 310 
3 311 312 313 
3 314 315 316 
3 317 318 319 
3 320 321 99 
3 76 77 100 
3 95 322 323 
3 324 325 326 
3 327 328 329 
3 330 331 332 
3 333 334 335 
3 336 337 338 
3 339 340 341 
3 342 343 344 
3 345 87 346 
3 347 348 349 
3 350 351 352 
3 353 354 355 
3 102 356 357 
3 358 359 360 
3 361 362 363 
3 364 365 366 
3 367 368 46 
3 369 370 371 
3 372 373 70 
3 374 375 75 
3 376 377 378 
3 379 380 381 
3 382 383 384 
3 385 386 387 
3 388 389 390 
3 391 392 393 
3 394 395 396 
3 397 398 399 
3 400 401 402 
3 403 404 405 
3 406 407 408 
3 409 410 411 
3 412 413 414 
3 415 416 417 
3 418 419 420 
3 421 422 423 
3 424 425 426 
3 427 428 429 
3 430 431 432 
3 433 434 435 
3 436 437 438 
3 439 440 441 
3 442 443 444 
3 445 88 446 
3 447 97 448 
3 89 449 450 
3 451 452 453 
3 454 455 98 
3 456 457 458 
3 459 460 461 
3 462 463 464 
3 465 466 467 
3 468 469 470 
3 471 472 473 
3 474 475 476 
3 477 478 479 
3 480 481 482 
3 483 484 485 
3 486 487 488 
3 489 490 491 
3 492 493 494 
3 495 496 497 
3 498 499 500 
3 501 502 503 
3 504 505 506 
3 507 508 509 
3 510 511 512 
3 513 514 515 
3 516 517 518 
3 519 520 521 
3 522 523 524 
3 525 526 527 
3 528 529 530 
3 531 532 533 
3 534 535 536 
3 537 538 539 
3 540 541 542 
3 543 544 545 
3 546 547 548 
3 549 550 551 
3 552 553 554 
3 555 556 557 
3 558 559 560 
3 561 562 563 
3 564 565 566 
3 567 568 569 
3 570 571 572 
3 573 574 575 
3 576 577 578 
3 579 580 581 
3 582 583 584 
3 585 586 587 
3 588 589 590 
3 591 592 593 
3 594 595 596 
3 597 598 599 
3 600 601 602 
3 603 604 605 
3 606 607 608 
3 609 610 611 
