ply
format ascii 1.0
comment VCGLIB generated
element vertex 384
property float x
property float y
property float z
element face 128
property list uchar int vertex_indices
end_header
-86.9658 99.3089 33.5768 
-103.241 83.162 19.8402 
-141.517 50.9242 104.962 
-80.2849 115.93 69.8117 
-200.826 -13.995 135.053 
-184.755 16.6594 152.924 
-200.226 10.7008 174.59 
-111.036 121.163 10.2691 
-93.3583 128.322 26.674 
-101.151 112.197 139.299 
-145.294 89.9188 176.027 
-113.408 130.069 127.623 
-147.28 153.151 76.4603 
-212.157 100.026 187.752 
-122.35 66.219 8.33476 
-174.719 48.0176 -9.12937 
-153.566 85.2295 -13.6578 
-134.456 118.496 -5.91167 
-279.233 15.7299 181.188 
-261.771 65.5076 197.5 
-261.081 85.3952 183.244 
-288.175 38.8978 171.829 
-283.603 16.8475 159.074 
-275.297 0.970116 166.102 
-221.604 133.761 30.1639 
-208.498 123.516 129.861 
-224.088 56.6224 -1.60147 
-190.528 89.66 -12.0945 
-200.918 -23.4491 67.5651 
-193.081 13.0262 34.6882 
-240.133 98.0358 3.18643 
-284.024 71.0912 26.4181 
-277.349 98.8502 28.6418 
-283.946 94.6396 83.2977 
-256.92 113.805 93.1622 
-278.706 45.6333 28.8624 
-229.511 40.5074 17.2063 
-192.661 121.654 -2.44162 
-116.826 144.67 26.7839 
-99.8048 152.362 69.2293 
-86.7645 141.878 67.4776 
-130.667 42.7137 56.111 
-168.85 2.5274 73.2784 
-151.109 5.99358 10.6138 
-266.385 -5.45551 138.445 
-279.79 7.52004 138.866 
-300.597 51.6512 129.102 
-268.395 3.42068 116.502 
-239.713 7.6801 191.541 
-223.923 -12.1991 157.282 
-190.131 79.1704 197.211 
-220.779 48.771 198.673 
-238.455 64.7915 201.613 
-254.538 96.2992 149.044 
-301.055 63.3954 144.245 
-247.201 -14.1578 160.744 
-295.294 64.4312 72.4552 
-242.34 -18.7414 118.104 
-261.636 1.07533 188.149 
-170.495 132.755 136.457 
-134.393 130.854 3.53785 
-145.235 146.715 27.034 
-181.565 135.261 7.20693 
-264.278 16.4152 72.7218 
-277.813 44.044 30.2074 
-283.284 76.4746 159.819 
-86.9658 99.3089 33.5768 
-86.9658 99.3089 33.5768 
-111.036 121.163 10.2691 
-111.036 121.163 10.2691 
-103.241 83.162 19.8402 
-184.755 16.6594 152.924 
-145.294 89.9188 176.027 
-141.517 50.9242 104.962 
-145.294 89.9188 176.027 
-101.151 112.197 139.299 
-145.294 89.9188 176.027 
-113.408 130.069 127.623 
-170.495 132.755 136.457 
-113.408 130.069 127.623 
-147.28 153.151 76.4603 
-113.408 130.069 127.623 
-122.35 66.219 8.33476 
-111.036 121.163 10.2691 
-122.35 66.219 8.33476 
-134.456 118.496 -5.91167 
-122.35 66.219 8.33476 
-153.566 85.2295 -13.6578 
-279.233 15.7299 181.188 
-261.081 85.3952 183.244 
-279.233 15.7299 181.188 
-288.175 38.8978 171.829 
-279.233 15.7299 181.188 
-283.603 16.8475 159.074 
-170.495 132.755 136.457 
-147.28 153.151 76.4603 
-170.495 132.755 136.457 
-221.604 133.761 30.1639 
-174.719 48.0176 -9.12937 
-174.719 48.0176 -9.12937 
-190.528 89.66 -12.0945 
-153.566 85.2295 -13.6578 
-200.918 -23.4491 67.5651 
-229.511 40.5074 17.2063 
-224.088 56.6224 -1.60147 
-240.133 98.0358 3.18643 
-284.024 71.0912 26.4181 
-229.511 40.5074 17.2063 
-277.813 44.044 30.2074 
-229.511 40.5074 17.2063 
-264.278 16.4152 72.7218 
-153.566 85.2295 -13.6578 
-190.528 89.66 -12.0945 
-153.566 85.2295 -13.6578 
-192.661 121.654 -2.44162 
-134.456 118.496 -5.91167 
-221.604 133.761 30.1639 
-192.661 121.654 -2.44162 
-221.604 133.761 30.1639 
-192.661 121.654 -2.44162 
-240.133 98.0358 3.18643 
-181.565 135.261 7.20693 
-221.604 133.761 30.1639 
-147.28 153.151 76.4603 
-181.565 135.261 7.20693 
-147.28 153.151 76.4603 
-99.8048 152.362 69.2293 
-113.408 130.069 127.623 
-101.151 112.197 139.299 
-99.8048 152.362 69.2293 
-101.151 112.197 139.299 
-103.241 83.162 19.8402 
-86.9658 99.3089 33.5768 
-103.241 83.162 19.8402 
-151.109 5.99358 10.6138 
-122.35 66.219 8.33476 
-151.109 5.99358 10.6138 
-86.9658 99.3089 33.5768 
-130.667 42.7137 56.111 
-130.667 42.7137 56.111 
-141.517 50.9242 104.962 
-130.667 42.7137 56.111 
-168.85 2.5274 73.2784 
-151.109 5.99358 10.6138 
-275.297 0.970116 166.102 
-279.79 7.52004 138.866 
-275.297 0.970116 166.102 
-283.603 16.8475 159.074 
-200.826 -13.995 135.053 
-200.226 10.7008 174.59 
-223.923 -12.1991 157.282 
-200.226 10.7008 174.59 
-200.226 10.7008 174.59 
-200.226 10.7008 174.59 
-220.779 48.771 198.673 
-239.713 7.6801 191.541 
-261.081 85.3952 183.244 
-261.771 65.5076 197.5 
-261.081 85.3952 183.244 
-238.455 64.7915 201.613 
-208.498 123.516 129.861 
-288.175 38.8978 171.829 
-261.081 85.3952 183.244 
-283.284 76.4746 159.819 
-283.603 16.8475 159.074 
-283.284 76.4746 159.819 
-283.603 16.8475 159.074 
-288.175 38.8978 171.829 
-266.385 -5.45551 138.445 
-275.297 0.970116 166.102 
-279.233 15.7299 181.188 
-275.297 0.970116 166.102 
-261.636 1.07533 188.149 
-275.297 0.970116 166.102 
-247.201 -14.1578 160.744 
-279.233 15.7299 181.188 
-261.636 1.07533 188.149 
-238.455 64.7915 201.613 
-279.233 15.7299 181.188 
-238.455 64.7915 201.613 
-261.771 65.5076 197.5 
-224.088 56.6224 -1.60147 
-174.719 48.0176 -9.12937 
-193.081 13.0262 34.6882 
-224.088 56.6224 -1.60147 
-193.081 13.0262 34.6882 
-229.511 40.5074 17.2063 
-193.081 13.0262 34.6882 
-174.719 48.0176 -9.12937 
-151.109 5.99358 10.6138 
-256.92 113.805 93.1622 
-277.349 98.8502 28.6418 
-283.946 94.6396 83.2977 
-277.349 98.8502 28.6418 
-284.024 71.0912 26.4181 
-283.946 94.6396 83.2977 
-284.024 71.0912 26.4181 
-295.294 64.4312 72.4552 
-284.024 71.0912 26.4181 
-278.706 45.6333 28.8624 
-278.706 45.6333 28.8624 
-284.024 71.0912 26.4181 
-224.088 56.6224 -1.60147 
-278.706 45.6333 28.8624 
-224.088 56.6224 -1.60147 
-229.511 40.5074 17.2063 
-301.055 63.3954 144.245 
-283.946 94.6396 83.2977 
-300.597 51.6512 129.102 
-283.946 94.6396 83.2977 
-295.294 64.4312 72.4552 
-301.055 63.3954 144.245 
-300.597 51.6512 129.102 
-279.79 7.52004 138.866 
-301.055 63.3954 144.245 
-279.79 7.52004 138.866 
-283.603 16.8475 159.074 
-200.918 -23.4491 67.5651 
-200.826 -13.995 135.053 
-242.34 -18.7414 118.104 
-200.826 -13.995 135.053 
-223.923 -12.1991 157.282 
-242.34 -18.7414 118.104 
-266.385 -5.45551 138.445 
-279.79 7.52004 138.866 
-242.34 -18.7414 118.104 
-279.79 7.52004 138.866 
-151.109 5.99358 10.6138 
-168.85 2.5274 73.2784 
-200.918 -23.4491 67.5651 
-268.395 3.42068 116.502 
-264.278 16.4152 72.7218 
-200.918 -23.4491 67.5651 
-268.395 3.42068 116.502 
-200.918 -23.4491 67.5651 
-242.34 -18.7414 118.104 
-200.918 -23.4491 67.5651 
-193.081 13.0262 34.6882 
-151.109 5.99358 10.6138 
-221.604 133.761 30.1639 
-240.133 98.0358 3.18643 
-277.349 98.8502 28.6418 
-221.604 133.761 30.1639 
-277.349 98.8502 28.6418 
-256.92 113.805 93.1622 
-256.92 113.805 93.1622 
-208.498 123.516 129.861 
-221.604 133.761 30.1639 
-86.7645 141.878 67.4776 
-101.151 112.197 139.299 
-80.2849 115.93 69.8117 
-190.528 89.66 -12.0945 
-224.088 56.6224 -1.60147 
-240.133 98.0358 3.18643 
-190.528 89.66 -12.0945 
-240.133 98.0358 3.18643 
-192.661 121.654 -2.44162 
-80.2849 115.93 69.8117 
-86.9658 99.3089 33.5768 
-93.3583 128.322 26.674 
-80.2849 115.93 69.8117 
-93.3583 128.322 26.674 
-86.7645 141.878 67.4776 
-261.636 1.07533 188.149 
-239.713 7.6801 191.541 
-220.779 48.771 198.673 
-261.636 1.07533 188.149 
-220.779 48.771 198.673 
-238.455 64.7915 201.613 
-190.131 79.1704 197.211 
-212.157 100.026 187.752 
-238.455 64.7915 201.613 
-190.131 79.1704 197.211 
-238.455 64.7915 201.613 
-220.779 48.771 198.673 
-190.131 79.1704 197.211 
-200.226 10.7008 174.59 
-184.755 16.6594 152.924 
-190.131 79.1704 197.211 
-184.755 16.6594 152.924 
-145.294 89.9188 176.027 
-200.918 -23.4491 67.5651 
-168.85 2.5274 73.2784 
-200.826 -13.995 135.053 
-174.719 48.0176 -9.12937 
-122.35 66.219 8.33476 
-151.109 5.99358 10.6138 
-247.201 -14.1578 160.744 
-223.923 -12.1991 157.282 
-239.713 7.6801 191.541 
-247.201 -14.1578 160.744 
-239.713 7.6801 191.541 
-261.636 1.07533 188.149 
-242.34 -18.7414 118.104 
-223.923 -12.1991 157.282 
-247.201 -14.1578 160.744 
-242.34 -18.7414 118.104 
-247.201 -14.1578 160.744 
-266.385 -5.45551 138.445 
-200.826 -13.995 135.053 
-168.85 2.5274 73.2784 
-141.517 50.9242 104.962 
-200.826 -13.995 135.053 
-141.517 50.9242 104.962 
-184.755 16.6594 152.924 
-212.157 100.026 187.752 
-208.498 123.516 129.861 
-254.538 96.2992 149.044 
-212.157 100.026 187.752 
-254.538 96.2992 149.044 
-261.081 85.3952 183.244 
-208.498 123.516 129.861 
-212.157 100.026 187.752 
-170.495 132.755 136.457 
-145.294 89.9188 176.027 
-170.495 132.755 136.457 
-212.157 100.026 187.752 
-145.294 89.9188 176.027 
-212.157 100.026 187.752 
-190.131 79.1704 197.211 
-93.3583 128.322 26.674 
-99.8048 152.362 69.2293 
-93.3583 128.322 26.674 
-99.8048 152.362 69.2293 
-86.7645 141.878 67.4776 
-111.036 121.163 10.2691 
-134.456 118.496 -5.91167 
-116.826 144.67 26.7839 
-93.3583 128.322 26.674 
-111.036 121.163 10.2691 
-116.826 144.67 26.7839 
-111.036 121.163 10.2691 
-134.393 130.854 3.53785 
-116.826 144.67 26.7839 
-145.235 146.715 27.034 
-147.28 153.151 76.4603 
-116.826 144.67 26.7839 
-147.28 153.151 76.4603 
-99.8048 152.362 69.2293 
-145.235 146.715 27.034 
-116.826 144.67 26.7839 
-134.393 130.854 3.53785 
-145.235 146.715 27.034 
-134.393 130.854 3.53785 
-181.565 135.261 7.20693 
-192.661 121.654 -2.44162 
-181.565 135.261 7.20693 
-134.393 130.854 3.53785 
-192.661 121.654 -2.44162 
-134.393 130.854 3.53785 
-134.456 118.496 -5.91167 
-279.79 7.52004 138.866 
-300.597 51.6512 129.102 
-268.395 3.42068 116.502 
-295.294 64.4312 72.4552 
-264.278 16.4152 72.7218 
-268.395 3.42068 116.502 
-295.294 64.4312 72.4552 
-268.395 3.42068 116.502 
-300.597 51.6512 129.102 
-277.813 44.044 30.2074 
-264.278 16.4152 72.7218 
-295.294 64.4312 72.4552 
-277.813 44.044 30.2074 
-295.294 64.4312 72.4552 
-278.706 45.6333 28.8624 
-261.081 85.3952 183.244 
-254.538 96.2992 149.044 
-283.284 76.4746 159.819 
-254.538 96.2992 149.044 
-256.92 113.805 93.1622 
-283.946 94.6396 83.2977 
-283.284 76.4746 159.819 
-254.538 96.2992 149.044 
-283.946 94.6396 83.2977 
-283.284 76.4746 159.819 
-283.946 94.6396 83.2977 
-301.055 63.3954 144.245 
-130.667 42.7137 56.111 
-80.2849 115.93 69.8117 
-101.151 112.197 139.299 
-130.667 42.7137 56.111 
-101.151 112.197 139.299 
-141.517 50.9242 104.962 
3 41 0 3 
3 4 5 6 
3 66 1 7 
3 67 68 8 
3 69 70 14 
3 10 71 2 
3 72 73 9 
3 74 75 11 
3 76 77 59 
3 12 78 79 
3 80 81 39 
3 82 15 16 
3 17 83 84 
3 85 86 87 
3 18 19 20 
3 88 89 21 
3 90 91 22 
3 92 93 23 
3 94 95 24 
3 96 97 25 
3 98 26 27 
3 99 100 101 
3 28 63 36 
3 102 103 29 
3 30 104 31 
3 105 106 32 
3 64 35 107 
3 108 109 110 
3 111 112 37 
3 113 114 115 
3 116 62 117 
3 118 119 120 
3 121 122 123 
3 124 125 61 
3 126 127 128 
3 129 130 40 
3 131 132 43 
3 133 134 135 
3 136 137 138 
3 139 140 42 
3 141 142 143 
3 45 44 144 
3 145 146 147 
3 49 148 149 
3 150 151 48 
3 152 50 51 
3 153 154 155 
3 156 157 52 
3 158 159 13 
3 160 34 53 
3 161 162 65 
3 163 54 164 
3 165 166 167 
3 168 55 169 
3 58 170 171 
3 172 173 174 
3 175 176 177 
3 178 179 180 
3 181 182 183 
3 184 185 186 
3 187 188 189 
3 33 190 191 
3 192 193 194 
3 56 195 196 
3 197 198 199 
3 200 201 202 
3 203 204 205 
3 46 206 207 
3 208 209 210 
3 211 212 213 
3 214 215 216 
3 57 217 218 
3 219 220 221 
3 222 223 224 
3 225 226 47 
3 227 228 229 
3 230 231 232 
3 233 234 235 
3 236 237 238 
3 239 240 241 
3 242 243 244 
3 245 246 247 
3 248 249 250 
3 251 252 253 
3 254 255 256 
3 257 258 259 
3 260 261 262 
3 263 264 265 
3 266 267 268 
3 269 270 271 
3 272 273 274 
3 275 276 277 
3 278 279 280 
3 281 282 283 
3 284 285 286 
3 287 288 289 
3 290 291 292 
3 293 294 295 
3 296 297 298 
3 299 300 301 
3 302 303 304 
3 305 306 307 
3 308 309 310 
3 311 312 313 
3 314 315 316 
3 317 318 319 
3 320 38 321 
3 322 323 324 
3 325 326 60 
3 327 328 329 
3 330 331 332 
3 333 334 335 
3 336 337 338 
3 339 340 341 
3 342 343 344 
3 345 346 347 
3 348 349 350 
3 351 352 353 
3 354 355 356 
3 357 358 359 
3 360 361 362 
3 363 364 365 
3 366 367 368 
3 369 370 371 
3 372 373 374 
3 375 376 377 
3 378 379 380 
3 381 382 383 
