ply
format ascii 1.0
comment VCGLIB generated
element vertex 492
property float x
property float y
property float z
element face 164
property list uchar int vertex_indices
end_header
123.32 37.7448 -383.342 
113.063 33.0833 -377.8 
108.008 37.4632 -373.165 
123.122 48.9597 -375.616 
80.9002 26.5279 -338.22 
77.5409 28.6419 -294.451 
87.6242 25.7967 -354.229 
86.3666 34.8662 -293.811 
71.6909 31.5672 -230.437 
79.5973 35.0752 -207.517 
85.9901 51.3873 -221.839 
76.8963 30.3799 -195.368 
136.933 12.0888 -369.491 
98.7973 13.5653 -358.396 
76.6018 23.3836 -290.068 
90.2951 19.1556 -325.522 
68.6401 19.8848 -232.148 
101.006 8.28304 -352.522 
87.277 -0.0580444 -277.726 
81.2266 8.10989 -202.009 
171.72 14.5045 -369.704 
173.517 -17.9526 -231.883 
181.024 -21.5937 -163.793 
105.645 15.2345 -109.023 
159.556 11.3768 -95.2085 
170.675 71.0902 -366.24 
183.096 53.9682 -381.981 
100.323 32.1784 -101.778 
144.508 70.725 -87.3142 
142.437 86.9612 -93.353 
97.6496 37.9109 -119.147 
278.316 4.66293 -301.054 
261.379 -7.0887 -225.071 
243.956 -15.4958 -219.837 
252.907 19.8124 -165.763 
238.049 -9.675 -185.598 
213.685 11.6116 -121.927 
232.71 30.53 -135.987 
231.926 91.6179 -344.23 
234.322 72.5982 -351.658 
192.42 50.474 -116.722 
184.269 102.146 -137.341 
193.656 68.5418 -125.666 
248.519 77.6498 -149.279 
233.837 104.121 -165.915 
246.817 115.464 -310.403 
236.125 121.934 -312.183 
238.533 118.88 -229.069 
270.92 87.338 -242.896 
243.588 98.3837 -181.797 
264.47 66.2989 -165.419 
272.039 12.4615 -230.002 
210.887 119.171 -241.341 
200.604 121.668 -301.636 
161.763 98.0184 -311.274 
270.394 6.37382 -328.414 
280.368 17.4447 -300.528 
107.764 48.8403 -343.171 
97.5182 37.3144 -331.988 
97.8771 40.8065 -290.182 
131.043 71.9454 -341.525 
100.485 50.7349 -128.97 
142.492 93.6265 -101.568 
141.698 91.8874 -122.538 
183.315 108.758 -149.375 
218.659 111.049 -187.637 
192.556 108.196 -225.19 
179.529 108.631 -153.46 
83.3795 33.0313 -154.208 
84.0488 29.5048 -126.054 
87.6531 10.5369 -137.653 
159.377 102.56 -174.28 
134.966 83.5815 -152.187 
227.404 115.439 -207.435 
172.653 106.192 -215.264 
123.079 74.0134 -218.302 
102.38 55.3267 -156.798 
143.009 6.87105 -354.469 
134.181 -9.79058 -252.792 
106.376 -7.62952 -195.436 
226.322 -16.8167 -305.317 
235.764 -12.5085 -272.973 
266.73 -8.63084 -323.017 
146.657 83.5297 -265.741 
123.32 37.7448 -383.342 
108.008 37.4632 -373.165 
108.008 37.4632 -373.165 
80.9002 26.5279 -338.22 
108.008 37.4632 -373.165 
79.5973 35.0752 -207.517 
71.6909 31.5672 -230.437 
113.063 33.0833 -377.8 
136.933 12.0888 -369.491 
113.063 33.0833 -377.8 
123.32 37.7448 -383.342 
77.5409 28.6419 -294.451 
80.9002 26.5279 -338.22 
76.6018 23.3836 -290.068 
80.9002 26.5279 -338.22 
71.6909 31.5672 -230.437 
77.5409 28.6419 -294.451 
68.6401 19.8848 -232.148 
77.5409 28.6419 -294.451 
76.6018 23.3836 -290.068 
76.8963 30.3799 -195.368 
71.6909 31.5672 -230.437 
81.2266 8.10989 -202.009 
71.6909 31.5672 -230.437 
68.6401 19.8848 -232.148 
101.006 8.28304 -352.522 
87.277 -0.0580444 -277.726 
90.2951 19.1556 -325.522 
87.277 -0.0580444 -277.726 
76.6018 23.3836 -290.068 
90.2951 19.1556 -325.522 
87.277 -0.0580444 -277.726 
81.2266 8.10989 -202.009 
68.6401 19.8848 -232.148 
87.277 -0.0580444 -277.726 
68.6401 19.8848 -232.148 
76.6018 23.3836 -290.068 
87.277 -0.0580444 -277.726 
143.009 6.87105 -354.469 
134.181 -9.79058 -252.792 
143.009 6.87105 -354.469 
134.181 -9.79058 -252.792 
81.2266 8.10989 -202.009 
134.181 -9.79058 -252.792 
81.2266 8.10989 -202.009 
87.277 -0.0580444 -277.726 
100.323 32.1784 -101.778 
159.556 11.3768 -95.2085 
100.323 32.1784 -101.778 
144.508 70.725 -87.3142 
100.323 32.1784 -101.778 
142.437 86.9612 -93.353 
252.907 19.8124 -165.763 
213.685 11.6116 -121.927 
252.907 19.8124 -165.763 
170.675 71.0902 -366.24 
234.322 72.5982 -351.658 
161.763 98.0184 -311.274 
192.556 108.196 -225.19 
213.685 11.6116 -121.927 
232.71 30.53 -135.987 
184.269 102.146 -137.341 
248.519 77.6498 -149.279 
246.817 115.464 -310.403 
238.533 118.88 -229.069 
233.837 104.121 -165.915 
248.519 77.6498 -149.279 
243.588 98.3837 -181.797 
248.519 77.6498 -149.279 
270.92 87.338 -242.896 
243.588 98.3837 -181.797 
264.47 66.2989 -165.419 
270.92 87.338 -242.896 
264.47 66.2989 -165.419 
210.887 119.171 -241.341 
161.763 98.0184 -311.274 
234.322 72.5982 -351.658 
231.926 91.6179 -344.23 
236.125 121.934 -312.183 
234.322 72.5982 -351.658 
236.125 121.934 -312.183 
246.817 115.464 -310.403 
183.096 53.9682 -381.981 
234.322 72.5982 -351.658 
183.096 53.9682 -381.981 
270.394 6.37382 -328.414 
234.322 72.5982 -351.658 
246.817 115.464 -310.403 
234.322 72.5982 -351.658 
280.368 17.4447 -300.528 
270.394 6.37382 -328.414 
171.72 14.5045 -369.704 
226.322 -16.8167 -305.317 
246.817 115.464 -310.403 
270.92 87.338 -242.896 
280.368 17.4447 -300.528 
80.9002 26.5279 -338.22 
87.6242 25.7967 -354.229 
98.7973 13.5653 -358.396 
80.9002 26.5279 -338.22 
98.7973 13.5653 -358.396 
101.006 8.28304 -352.522 
80.9002 26.5279 -338.22 
101.006 8.28304 -352.522 
90.2951 19.1556 -325.522 
108.008 37.4632 -373.165 
113.063 33.0833 -377.8 
98.7973 13.5653 -358.396 
108.008 37.4632 -373.165 
98.7973 13.5653 -358.396 
87.6242 25.7967 -354.229 
123.122 48.9597 -375.616 
108.008 37.4632 -373.165 
107.764 48.8403 -343.171 
108.008 37.4632 -373.165 
77.5409 28.6419 -294.451 
97.5182 37.3144 -331.988 
77.5409 28.6419 -294.451 
97.5182 37.3144 -331.988 
108.008 37.4632 -373.165 
107.764 48.8403 -343.171 
171.72 14.5045 -369.704 
143.009 6.87105 -354.469 
136.933 12.0888 -369.491 
123.122 48.9597 -375.616 
170.675 71.0902 -366.24 
183.096 53.9682 -381.981 
123.122 48.9597 -375.616 
183.096 53.9682 -381.981 
123.32 37.7448 -383.342 
123.32 37.7448 -383.342 
183.096 53.9682 -381.981 
171.72 14.5045 -369.704 
123.32 37.7448 -383.342 
171.72 14.5045 -369.704 
136.933 12.0888 -369.491 
123.122 48.9597 -375.616 
107.764 48.8403 -343.171 
131.043 71.9454 -341.525 
97.6496 37.9109 -119.147 
100.485 50.7349 -128.97 
142.492 93.6265 -101.568 
192.556 108.196 -225.19 
183.315 108.758 -149.375 
192.556 108.196 -225.19 
86.3666 34.8662 -293.811 
77.5409 28.6419 -294.451 
71.6909 31.5672 -230.437 
85.9901 51.3873 -221.839 
83.3795 33.0313 -154.208 
85.9901 51.3873 -221.839 
79.5973 35.0752 -207.517 
79.5973 35.0752 -207.517 
76.8963 30.3799 -195.368 
79.5973 35.0752 -207.517 
84.0488 29.5048 -126.054 
83.3795 33.0313 -154.208 
76.8963 30.3799 -195.368 
81.2266 8.10989 -202.009 
76.8963 30.3799 -195.368 
87.6531 10.5369 -137.653 
84.0488 29.5048 -126.054 
81.2266 8.10989 -202.009 
106.376 -7.62952 -195.436 
87.6531 10.5369 -137.653 
159.556 11.3768 -95.2085 
105.645 15.2345 -109.023 
87.6531 10.5369 -137.653 
159.556 11.3768 -95.2085 
181.024 -21.5937 -163.793 
213.685 11.6116 -121.927 
213.685 11.6116 -121.927 
192.42 50.474 -116.722 
144.508 70.725 -87.3142 
213.685 11.6116 -121.927 
144.508 70.725 -87.3142 
159.556 11.3768 -95.2085 
193.656 68.5418 -125.666 
142.437 86.9612 -93.353 
144.508 70.725 -87.3142 
193.656 68.5418 -125.666 
144.508 70.725 -87.3142 
192.42 50.474 -116.722 
183.315 108.758 -149.375 
179.529 108.631 -153.46 
141.698 91.8874 -122.538 
183.315 108.758 -149.375 
141.698 91.8874 -122.538 
142.492 93.6265 -101.568 
123.079 74.0134 -218.302 
159.377 102.56 -174.28 
97.6496 37.9109 -119.147 
83.3795 33.0313 -154.208 
84.0488 29.5048 -126.054 
97.6496 37.9109 -119.147 
84.0488 29.5048 -126.054 
100.323 32.1784 -101.778 
100.323 32.1784 -101.778 
84.0488 29.5048 -126.054 
87.6531 10.5369 -137.653 
100.323 32.1784 -101.778 
87.6531 10.5369 -137.653 
105.645 15.2345 -109.023 
231.926 91.6179 -344.23 
170.675 71.0902 -366.24 
131.043 71.9454 -341.525 
231.926 91.6179 -344.23 
131.043 71.9454 -341.525 
161.763 98.0184 -311.274 
243.588 98.3837 -181.797 
270.92 87.338 -242.896 
238.533 118.88 -229.069 
243.588 98.3837 -181.797 
238.533 118.88 -229.069 
227.404 115.439 -207.435 
238.533 118.88 -229.069 
210.887 119.171 -241.341 
238.533 118.88 -229.069 
236.125 121.934 -312.183 
200.604 121.668 -301.636 
238.533 118.88 -229.069 
200.604 121.668 -301.636 
210.887 119.171 -241.341 
236.125 121.934 -312.183 
231.926 91.6179 -344.23 
161.763 98.0184 -311.274 
236.125 121.934 -312.183 
161.763 98.0184 -311.274 
200.604 121.668 -301.636 
97.6496 37.9109 -119.147 
142.437 86.9612 -93.353 
142.492 93.6265 -101.568 
183.315 108.758 -149.375 
184.269 102.146 -137.341 
233.837 104.121 -165.915 
183.315 108.758 -149.375 
233.837 104.121 -165.915 
218.659 111.049 -187.637 
184.269 102.146 -137.341 
183.315 108.758 -149.375 
142.492 93.6265 -101.568 
184.269 102.146 -137.341 
142.492 93.6265 -101.568 
142.437 86.9612 -93.353 
218.659 111.049 -187.637 
233.837 104.121 -165.915 
243.588 98.3837 -181.797 
218.659 111.049 -187.637 
243.588 98.3837 -181.797 
227.404 115.439 -207.435 
192.556 108.196 -225.19 
218.659 111.049 -187.637 
227.404 115.439 -207.435 
192.556 108.196 -225.19 
227.404 115.439 -207.435 
210.887 119.171 -241.341 
123.079 74.0134 -218.302 
146.657 83.5297 -265.741 
97.8771 40.8065 -290.182 
123.079 74.0134 -218.302 
97.8771 40.8065 -290.182 
85.9901 51.3873 -221.839 
85.9901 51.3873 -221.839 
102.38 55.3267 -156.798 
123.079 74.0134 -218.302 
100.485 50.7349 -128.97 
141.698 91.8874 -122.538 
134.966 83.5815 -152.187 
100.485 50.7349 -128.97 
134.966 83.5815 -152.187 
102.38 55.3267 -156.798 
141.698 91.8874 -122.538 
179.529 108.631 -153.46 
159.377 102.56 -174.28 
141.698 91.8874 -122.538 
159.377 102.56 -174.28 
134.966 83.5815 -152.187 
159.377 102.56 -174.28 
179.529 108.631 -153.46 
192.556 108.196 -225.19 
159.377 102.56 -174.28 
192.556 108.196 -225.19 
172.653 106.192 -215.264 
102.38 55.3267 -156.798 
134.966 83.5815 -152.187 
123.079 74.0134 -218.302 
181.024 -21.5937 -163.793 
238.049 -9.675 -185.598 
252.907 19.8124 -165.763 
193.656 68.5418 -125.666 
192.42 50.474 -116.722 
232.71 30.53 -135.987 
193.656 68.5418 -125.666 
232.71 30.53 -135.987 
248.519 77.6498 -149.279 
248.519 77.6498 -149.279 
232.71 30.53 -135.987 
252.907 19.8124 -165.763 
248.519 77.6498 -149.279 
252.907 19.8124 -165.763 
264.47 66.2989 -165.419 
264.47 66.2989 -165.419 
252.907 19.8124 -165.763 
261.379 -7.0887 -225.071 
264.47 66.2989 -165.419 
261.379 -7.0887 -225.071 
272.039 12.4615 -230.002 
238.049 -9.675 -185.598 
181.024 -21.5937 -163.793 
238.049 -9.675 -185.598 
173.517 -17.9526 -231.883 
193.656 68.5418 -125.666 
184.269 102.146 -137.341 
142.437 86.9612 -93.353 
280.368 17.4447 -300.528 
266.73 -8.63084 -323.017 
280.368 17.4447 -300.528 
266.73 -8.63084 -323.017 
270.394 6.37382 -328.414 
270.394 6.37382 -328.414 
266.73 -8.63084 -323.017 
171.72 14.5045 -369.704 
272.039 12.4615 -230.002 
278.316 4.66293 -301.054 
280.368 17.4447 -300.528 
272.039 12.4615 -230.002 
280.368 17.4447 -300.528 
270.92 87.338 -242.896 
272.039 12.4615 -230.002 
261.379 -7.0887 -225.071 
278.316 4.66293 -301.054 
136.933 12.0888 -369.491 
143.009 6.87105 -354.469 
101.006 8.28304 -352.522 
136.933 12.0888 -369.491 
101.006 8.28304 -352.522 
98.7973 13.5653 -358.396 
238.049 -9.675 -185.598 
243.956 -15.4958 -219.837 
261.379 -7.0887 -225.071 
86.3666 34.8662 -293.811 
71.6909 31.5672 -230.437 
85.9901 51.3873 -221.839 
86.3666 34.8662 -293.811 
85.9901 51.3873 -221.839 
97.8771 40.8065 -290.182 
123.079 74.0134 -218.302 
172.653 106.192 -215.264 
192.556 108.196 -225.19 
123.079 74.0134 -218.302 
192.556 108.196 -225.19 
146.657 83.5297 -265.741 
100.485 50.7349 -128.97 
102.38 55.3267 -156.798 
83.3795 33.0313 -154.208 
100.485 50.7349 -128.97 
83.3795 33.0313 -154.208 
97.6496 37.9109 -119.147 
171.72 14.5045 -369.704 
226.322 -16.8167 -305.317 
143.009 6.87105 -354.469 
173.517 -17.9526 -231.883 
134.181 -9.79058 -252.792 
226.322 -16.8167 -305.317 
173.517 -17.9526 -231.883 
226.322 -16.8167 -305.317 
106.376 -7.62952 -195.436 
134.181 -9.79058 -252.792 
173.517 -17.9526 -231.883 
106.376 -7.62952 -195.436 
173.517 -17.9526 -231.883 
181.024 -21.5937 -163.793 
87.6531 10.5369 -137.653 
106.376 -7.62952 -195.436 
181.024 -21.5937 -163.793 
87.6531 10.5369 -137.653 
181.024 -21.5937 -163.793 
159.556 11.3768 -95.2085 
235.764 -12.5085 -272.973 
278.316 4.66293 -301.054 
261.379 -7.0887 -225.071 
235.764 -12.5085 -272.973 
261.379 -7.0887 -225.071 
243.956 -15.4958 -219.837 
235.764 -12.5085 -272.973 
243.956 -15.4958 -219.837 
173.517 -17.9526 -231.883 
278.316 4.66293 -301.054 
235.764 -12.5085 -272.973 
226.322 -16.8167 -305.317 
278.316 4.66293 -301.054 
226.322 -16.8167 -305.317 
266.73 -8.63084 -323.017 
97.8771 40.8065 -290.182 
146.657 83.5297 -265.741 
131.043 71.9454 -341.525 
161.763 98.0184 -311.274 
131.043 71.9454 -341.525 
146.657 83.5297 -265.741 
131.043 71.9454 -341.525 
170.675 71.0902 -366.24 
123.122 48.9597 -375.616 
97.5182 37.3144 -331.988 
86.3666 34.8662 -293.811 
97.8771 40.8065 -290.182 
97.5182 37.3144 -331.988 
97.8771 40.8065 -290.182 
107.764 48.8403 -343.171 
3 0 1 2 
3 84 85 3 
3 4 5 86 
3 87 88 6 
3 8 9 10 
3 89 90 11 
3 12 13 91 
3 92 93 94 
3 14 95 96 
3 97 98 15 
3 16 99 100 
3 101 102 103 
3 19 104 105 
3 106 107 108 
3 17 77 18 
3 109 110 111 
3 112 113 114 
3 115 116 117 
3 118 119 120 
3 78 121 122 
3 123 124 80 
3 125 79 126 
3 127 128 129 
3 27 23 24 
3 130 131 28 
3 132 133 29 
3 134 135 30 
3 32 34 35 
3 36 22 136 
3 137 138 37 
3 25 38 39 
3 139 140 26 
3 54 83 66 
3 141 142 52 
3 40 143 144 
3 41 42 43 
3 145 146 44 
3 45 46 47 
3 147 148 48 
3 49 149 150 
3 151 152 50 
3 153 154 155 
3 156 157 51 
3 158 53 159 
3 160 161 162 
3 163 164 165 
3 166 167 55 
3 168 169 20 
3 170 171 56 
3 172 173 174 
3 175 82 176 
3 177 178 179 
3 180 181 182 
3 183 184 185 
3 186 187 188 
3 189 190 191 
3 192 193 194 
3 57 195 196 
3 197 198 58 
3 199 7 200 
3 201 202 203 
3 59 60 204 
3 205 206 207 
3 208 209 210 
3 211 212 213 
3 214 215 216 
3 217 218 219 
3 220 221 222 
3 61 223 62 
3 224 225 63 
3 64 65 226 
3 227 228 67 
3 229 230 231 
3 68 76 232 
3 233 234 235 
3 236 237 69 
3 238 239 240 
3 241 242 70 
3 243 244 245 
3 246 247 248 
3 249 250 251 
3 252 253 254 
3 255 256 257 
3 258 259 260 
3 261 262 263 
3 264 265 266 
3 267 268 269 
3 270 271 272 
3 75 72 71 
3 273 274 74 
3 275 276 277 
3 278 279 280 
3 281 282 283 
3 284 285 286 
3 287 288 289 
3 290 291 292 
3 293 294 295 
3 296 297 73 
3 298 299 300 
3 301 302 303 
3 304 305 306 
3 307 308 309 
3 310 311 312 
3 313 314 315 
3 316 317 318 
3 319 320 321 
3 322 323 324 
3 325 326 327 
3 328 329 330 
3 331 332 333 
3 334 335 336 
3 337 338 339 
3 340 341 342 
3 343 344 345 
3 346 347 348 
3 349 350 351 
3 352 353 354 
3 355 356 357 
3 358 359 360 
3 361 362 363 
3 364 365 366 
3 367 368 369 
3 370 371 372 
3 373 374 375 
3 376 377 378 
3 379 380 381 
3 382 383 384 
3 385 386 387 
3 388 389 390 
3 391 392 21 
3 393 394 33 
3 395 396 397 
3 398 31 399 
3 400 401 402 
3 403 404 405 
3 406 407 408 
3 409 410 411 
3 412 413 414 
3 415 416 417 
3 418 419 420 
3 421 422 423 
3 424 425 426 
3 427 428 429 
3 430 431 432 
3 433 434 435 
3 436 437 438 
3 439 440 441 
3 442 443 444 
3 445 446 447 
3 448 449 81 
3 450 451 452 
3 453 454 455 
3 456 457 458 
3 459 460 461 
3 462 463 464 
3 465 466 467 
3 468 469 470 
3 471 472 473 
3 474 475 476 
3 477 478 479 
3 480 481 482 
3 483 484 485 
3 486 487 488 
3 489 490 491 
