ply
format ascii 1.0
comment VCGLIB generated
element vertex 262
property float x
property float y
property float z
element face 88
property list uchar int vertex_indices
end_header
19.9397 33.7067 215.469 
-0.589424 96.4548 198.608 
189.244 -35.4552 185.737 
50.9102 -10.2855 208.919 
217.02 -53.6149 130.369 
-93.4873 29.3112 118.616 
-58.7937 -38.5161 130.229 
-13.6899 -67.515 123.203 
176.641 -80.4642 122.434 
86.4913 -85.6788 151.65 
156.631 -94.017 125.56 
47.27 -91.1425 25.547 
99.3815 -88.7859 -23.2863 
157.945 -52.7238 -21.7596 
211.651 47.1336 93.215 
176.279 63.759 182.758 
212.544 0.925209 52.0837 
-57.934 -26.0852 24.8629 
-48.7612 56.3265 -15.157 
10.6914 47.3135 -78.2112 
96.2731 15.9141 -107.74 
180.473 32.3284 -36.9047 
133.285 116.097 144.072 
187.417 89.2819 73.1988 
116.823 136.729 75.5371 
25.019 138.909 143.352 
62.2399 121.962 43.1 
153.329 101.64 34.9345 
113.506 59.0127 -88.3981 
-81.005 65.4108 74.8244 
-11.5091 117.404 57.6372 
80.8213 -90.7687 -9.38067 
58.3932 24.3245 -112.114 
108.334 122.188 36.5491 
62.3755 54.7449 -85.5304 
117.972 -89.4212 139.94 
141.223 -31.8021 207.822 
114.617 55.6342 207.823 
69.1776 110.29 181.788 
-71.4987 15.9975 4.50008 
18.0154 -25.7752 -45.0227 
97.3129 -43.5182 -95.4332 
172.429 -13.8027 -43.7867 
69.0927 -40.3043 -90.6678 
201.971 10.8265 -0.643982 
187.417 89.2819 73.1988 
-0.589424 96.4548 198.608 
-58.7937 -38.5161 130.229 
86.4913 -85.6788 151.65 
86.4913 -85.6788 151.65 
141.223 -31.8021 207.822 
50.9102 -10.2855 208.919 
176.641 -80.4642 122.434 
189.244 -35.4552 185.737 
-58.7937 -38.5161 130.229 
-93.4873 29.3112 118.616 
-58.7937 -38.5161 130.229 
-57.934 -26.0852 24.8629 
-13.6899 -67.515 123.203 
86.4913 -85.6788 151.65 
-13.6899 -67.515 123.203 
47.27 -91.1425 25.547 
-13.6899 -67.515 123.203 
-57.934 -26.0852 24.8629 
47.27 -91.1425 25.547 
117.972 -89.4212 139.94 
47.27 -91.1425 25.547 
117.972 -89.4212 139.94 
86.4913 -85.6788 151.65 
176.641 -80.4642 122.434 
156.631 -94.017 125.56 
176.641 -80.4642 122.434 
99.3815 -88.7859 -23.2863 
189.244 -35.4552 185.737 
217.02 -53.6149 130.369 
189.244 -35.4552 185.737 
211.651 47.1336 93.215 
217.02 -53.6149 130.369 
176.641 -80.4642 122.434 
157.945 -52.7238 -21.7596 
217.02 -53.6149 130.369 
157.945 -52.7238 -21.7596 
217.02 -53.6149 130.369 
212.544 0.925209 52.0837 
211.651 47.1336 93.215 
-57.934 -26.0852 24.8629 
-57.934 -26.0852 24.8629 
18.0154 -25.7752 -45.0227 
47.27 -91.1425 25.547 
10.6914 47.3135 -78.2112 
69.0927 -40.3043 -90.6678 
18.0154 -25.7752 -45.0227 
180.473 32.3284 -36.9047 
97.3129 -43.5182 -95.4332 
-0.589424 96.4548 198.608 
133.285 116.097 144.072 
187.417 89.2819 73.1988 
212.544 0.925209 52.0837 
157.945 -52.7238 -21.7596 
172.429 -13.8027 -43.7867 
212.544 0.925209 52.0837 
172.429 -13.8027 -43.7867 
25.019 138.909 143.352 
116.823 136.729 75.5371 
25.019 138.909 143.352 
62.2399 121.962 43.1 
62.2399 121.962 43.1 
116.823 136.729 75.5371 
187.417 89.2819 73.1988 
180.473 32.3284 -36.9047 
153.329 101.64 34.9345 
180.473 32.3284 -36.9047 
113.506 59.0127 -88.3981 
108.334 122.188 36.5491 
113.506 59.0127 -88.3981 
108.334 122.188 36.5491 
153.329 101.64 34.9345 
113.506 59.0127 -88.3981 
96.2731 15.9141 -107.74 
58.3932 24.3245 -112.114 
113.506 59.0127 -88.3981 
58.3932 24.3245 -112.114 
62.3755 54.7449 -85.5304 
113.506 59.0127 -88.3981 
180.473 32.3284 -36.9047 
96.2731 15.9141 -107.74 
-0.589424 96.4548 198.608 
25.019 138.909 143.352 
-0.589424 96.4548 198.608 
-81.005 65.4108 74.8244 
-93.4873 29.3112 118.616 
-11.5091 117.404 57.6372 
-81.005 65.4108 74.8244 
-57.934 -26.0852 24.8629 
-93.4873 29.3112 118.616 
-81.005 65.4108 74.8244 
-57.934 -26.0852 24.8629 
-81.005 65.4108 74.8244 
-71.4987 15.9975 4.50008 
-48.7612 56.3265 -15.157 
-11.5091 117.404 57.6372 
62.2399 121.962 43.1 
-48.7612 56.3265 -15.157 
62.2399 121.962 43.1 
10.6914 47.3135 -78.2112 
19.9397 33.7067 215.469 
69.1776 110.29 181.788 
19.9397 33.7067 215.469 
69.1776 110.29 181.788 
-0.589424 96.4548 198.608 
211.651 47.1336 93.215 
212.544 0.925209 52.0837 
201.971 10.8265 -0.643982 
-58.7937 -38.5161 130.229 
-13.6899 -67.515 123.203 
50.9102 -10.2855 208.919 
-58.7937 -38.5161 130.229 
50.9102 -10.2855 208.919 
19.9397 33.7067 215.469 
114.617 55.6342 207.823 
19.9397 33.7067 215.469 
50.9102 -10.2855 208.919 
114.617 55.6342 207.823 
50.9102 -10.2855 208.919 
141.223 -31.8021 207.822 
-81.005 65.4108 74.8244 
25.019 138.909 143.352 
-11.5091 117.404 57.6372 
62.3755 54.7449 -85.5304 
10.6914 47.3135 -78.2112 
62.2399 121.962 43.1 
62.3755 54.7449 -85.5304 
62.2399 121.962 43.1 
108.334 122.188 36.5491 
58.3932 24.3245 -112.114 
10.6914 47.3135 -78.2112 
62.3755 54.7449 -85.5304 
153.329 101.64 34.9345 
108.334 122.188 36.5491 
116.823 136.729 75.5371 
153.329 101.64 34.9345 
116.823 136.729 75.5371 
187.417 89.2819 73.1988 
80.8213 -90.7687 -9.38067 
99.3815 -88.7859 -23.2863 
156.631 -94.017 125.56 
80.8213 -90.7687 -9.38067 
156.631 -94.017 125.56 
117.972 -89.4212 139.94 
156.631 -94.017 125.56 
189.244 -35.4552 185.737 
141.223 -31.8021 207.822 
156.631 -94.017 125.56 
141.223 -31.8021 207.822 
117.972 -89.4212 139.94 
141.223 -31.8021 207.822 
189.244 -35.4552 185.737 
176.279 63.759 182.758 
141.223 -31.8021 207.822 
176.279 63.759 182.758 
114.617 55.6342 207.823 
114.617 55.6342 207.823 
176.279 63.759 182.758 
133.285 116.097 144.072 
114.617 55.6342 207.823 
133.285 116.097 144.072 
69.1776 110.29 181.788 
133.285 116.097 144.072 
116.823 136.729 75.5371 
25.019 138.909 143.352 
133.285 116.097 144.072 
25.019 138.909 143.352 
69.1776 110.29 181.788 
96.2731 15.9141 -107.74 
97.3129 -43.5182 -95.4332 
69.0927 -40.3043 -90.6678 
96.2731 15.9141 -107.74 
69.0927 -40.3043 -90.6678 
58.3932 24.3245 -112.114 
-71.4987 15.9975 4.50008 
-48.7612 56.3265 -15.157 
10.6914 47.3135 -78.2112 
-71.4987 15.9975 4.50008 
10.6914 47.3135 -78.2112 
18.0154 -25.7752 -45.0227 
80.8213 -90.7687 -9.38067 
47.27 -91.1425 25.547 
18.0154 -25.7752 -45.0227 
80.8213 -90.7687 -9.38067 
18.0154 -25.7752 -45.0227 
69.0927 -40.3043 -90.6678 
157.945 -52.7238 -21.7596 
99.3815 -88.7859 -23.2863 
97.3129 -43.5182 -95.4332 
157.945 -52.7238 -21.7596 
97.3129 -43.5182 -95.4332 
172.429 -13.8027 -43.7867 
99.3815 -88.7859 -23.2863 
80.8213 -90.7687 -9.38067 
69.0927 -40.3043 -90.6678 
99.3815 -88.7859 -23.2863 
69.0927 -40.3043 -90.6678 
97.3129 -43.5182 -95.4332 
-81.005 65.4108 74.8244 
-48.7612 56.3265 -15.157 
-71.4987 15.9975 4.50008 
172.429 -13.8027 -43.7867 
180.473 32.3284 -36.9047 
201.971 10.8265 -0.643982 
180.473 32.3284 -36.9047 
180.473 32.3284 -36.9047 
187.417 89.2819 73.1988 
211.651 47.1336 93.215 
201.971 10.8265 -0.643982 
180.473 32.3284 -36.9047 
211.651 47.1336 93.215 
133.285 116.097 144.072 
176.279 63.759 182.758 
211.651 47.1336 93.215 
133.285 116.097 144.072 
211.651 47.1336 93.215 
187.417 89.2819 73.1988 
3 1 5 6 
3 46 47 0 
3 7 9 3 
3 48 35 36 
3 49 50 51 
3 8 4 2 
3 52 53 10 
3 54 55 17 
3 56 57 58 
3 11 59 60 
3 61 62 63 
3 64 31 65 
3 66 67 68 
3 69 70 12 
3 71 72 13 
3 73 74 14 
3 75 76 15 
3 77 78 79 
3 80 81 16 
3 82 83 84 
3 85 39 40 
3 86 87 88 
3 19 32 43 
3 89 90 91 
3 21 42 41 
3 92 93 20 
3 25 94 38 
3 22 45 23 
3 95 96 24 
3 97 98 99 
3 100 101 44 
3 102 103 26 
3 104 105 30 
3 33 106 107 
3 27 108 109 
3 110 111 28 
3 112 34 113 
3 114 115 116 
3 117 118 119 
3 120 121 122 
3 123 124 125 
3 126 127 29 
3 128 129 130 
3 131 18 132 
3 133 134 135 
3 136 137 138 
3 139 140 141 
3 142 143 144 
3 145 37 146 
3 147 148 149 
3 150 151 152 
3 153 154 155 
3 156 157 158 
3 159 160 161 
3 162 163 164 
3 165 166 167 
3 168 169 170 
3 171 172 173 
3 174 175 176 
3 177 178 179 
3 180 181 182 
3 183 184 185 
3 186 187 188 
3 189 190 191 
3 192 193 194 
3 195 196 197 
3 198 199 200 
3 201 202 203 
3 204 205 206 
3 207 208 209 
3 210 211 212 
3 213 214 215 
3 216 217 218 
3 219 220 221 
3 222 223 224 
3 225 226 227 
3 228 229 230 
3 231 232 233 
3 234 235 236 
3 237 238 239 
3 240 241 242 
3 243 244 245 
3 246 247 248 
3 249 23 45 
3 250 251 252 
3 253 254 255 
3 256 257 258 
3 259 260 261 
