ply
format ascii 1.0
comment VCGLIB generated
element vertex 222
property float x
property float y
property float z
element face 74
property list uchar int vertex_indices
end_header
-82.6085 100.366 326.172 
-50.6199 111.32 243.309 
-20.1171 76.837 278.72 
-28.5661 33.3359 331.937 
-14.735 38.0734 234.723 
-6.8853 9.23911 291.893 
-53.0747 9.78361 207.756 
-60.4906 77.1219 206.672 
-84.0119 -13.109 180.137 
-54.3078 -43.2069 224.002 
-98.8716 -61.2195 213.065 
-142.818 -4.61951 198.526 
-162.888 -45.3708 234.662 
-215.849 68.8848 300.456 
-165.414 71.1302 197.132 
-223.593 13.2188 242.888 
-229.777 45.5972 246.697 
-211.061 88.1296 249.017 
-166.179 93.0677 203.175 
-164.82 -59.7831 324.733 
-130.647 -13.527 381.994 
-200.13 -78.0723 289.672 
-248.868 33.684 288.661 
-247.072 -5.18608 280.841 
-180.608 62.0848 365.886 
-238.593 43.3626 337.985 
-218.965 13.3609 355.593 
-261.361 15.5488 315.614 
-84.9863 -14.5663 367.049 
-188.865 -46.744 342.839 
-108.641 121.653 248.09 
-94.0517 117.321 273.633 
-12.8924 -5.16477 244.923 
-102.778 88.7188 178.251 
-209.404 -66.7509 320.044 
-155.842 26.1904 387.247 
-83.4633 32.4964 371.374 
-145.711 79.9249 359.309 
-89.0302 112.731 205.479 
-82.6085 100.366 326.172 
-50.6199 111.32 243.309 
-20.1171 76.837 278.72 
-82.6085 100.366 326.172 
-6.8853 9.23911 291.893 
-82.6085 100.366 326.172 
-50.6199 111.32 243.309 
-60.4906 77.1219 206.672 
-50.6199 111.32 243.309 
-14.735 38.0734 234.723 
-53.0747 9.78361 207.756 
-12.8924 -5.16477 244.923 
-53.0747 9.78361 207.756 
-53.0747 9.78361 207.756 
-102.778 88.7188 178.251 
-60.4906 77.1219 206.672 
-6.8853 9.23911 291.893 
-28.5661 33.3359 331.937 
-6.8853 9.23911 291.893 
-83.4633 32.4964 371.374 
-84.0119 -13.109 180.137 
-53.0747 9.78361 207.756 
-54.3078 -43.2069 224.002 
-84.0119 -13.109 180.137 
-54.3078 -43.2069 224.002 
-84.0119 -13.109 180.137 
-98.8716 -61.2195 213.065 
-142.818 -4.61951 198.526 
-98.8716 -61.2195 213.065 
-82.6085 100.366 326.172 
-94.0517 117.321 273.633 
-145.711 79.9249 359.309 
-94.0517 117.321 273.633 
-28.5661 33.3359 331.937 
-82.6085 100.366 326.172 
-145.711 79.9249 359.309 
-28.5661 33.3359 331.937 
-145.711 79.9249 359.309 
-83.4633 32.4964 371.374 
-142.818 -4.61951 198.526 
-162.888 -45.3708 234.662 
-165.414 71.1302 197.132 
-162.888 -45.3708 234.662 
-166.179 93.0677 203.175 
-211.061 88.1296 249.017 
-98.8716 -61.2195 213.065 
-54.3078 -43.2069 224.002 
-164.82 -59.7831 324.733 
-98.8716 -61.2195 213.065 
-164.82 -59.7831 324.733 
-162.888 -45.3708 234.662 
-200.13 -78.0723 289.672 
-162.888 -45.3708 234.662 
-247.072 -5.18608 280.841 
-223.593 13.2188 242.888 
-180.608 62.0848 365.886 
-218.965 13.3609 355.593 
-218.965 13.3609 355.593 
-238.593 43.3626 337.985 
-20.1171 76.837 278.72 
-14.735 38.0734 234.723 
-50.6199 111.32 243.309 
-215.849 68.8848 300.456 
-94.0517 117.321 273.633 
-108.641 121.653 248.09 
-215.849 68.8848 300.456 
-108.641 121.653 248.09 
-211.061 88.1296 249.017 
-229.777 45.5972 246.697 
-223.593 13.2188 242.888 
-247.072 -5.18608 280.841 
-229.777 45.5972 246.697 
-247.072 -5.18608 280.841 
-248.868 33.684 288.661 
-215.849 68.8848 300.456 
-211.061 88.1296 249.017 
-248.868 33.684 288.661 
-211.061 88.1296 249.017 
-229.777 45.5972 246.697 
-12.8924 -5.16477 244.923 
-84.9863 -14.5663 367.049 
-54.3078 -43.2069 224.002 
-12.8924 -5.16477 244.923 
-6.8853 9.23911 291.893 
-84.9863 -14.5663 367.049 
-89.0302 112.731 205.479 
-108.641 121.653 248.09 
-94.0517 117.321 273.633 
-89.0302 112.731 205.479 
-94.0517 117.321 273.633 
-50.6199 111.32 243.309 
-165.414 71.1302 197.132 
-223.593 13.2188 242.888 
-229.777 45.5972 246.697 
-165.414 71.1302 197.132 
-229.777 45.5972 246.697 
-166.179 93.0677 203.175 
-20.1171 76.837 278.72 
-6.8853 9.23911 291.893 
-12.8924 -5.16477 244.923 
-20.1171 76.837 278.72 
-12.8924 -5.16477 244.923 
-14.735 38.0734 234.723 
-60.4906 77.1219 206.672 
-102.778 88.7188 178.251 
-89.0302 112.731 205.479 
-102.778 88.7188 178.251 
-84.0119 -13.109 180.137 
-142.818 -4.61951 198.526 
-102.778 88.7188 178.251 
-142.818 -4.61951 198.526 
-165.414 71.1302 197.132 
-164.82 -59.7831 324.733 
-54.3078 -43.2069 224.002 
-84.9863 -14.5663 367.049 
-164.82 -59.7831 324.733 
-84.9863 -14.5663 367.049 
-130.647 -13.527 381.994 
-162.888 -45.3708 234.662 
-98.8716 -61.2195 213.065 
-200.13 -78.0723 289.672 
-215.849 68.8848 300.456 
-248.868 33.684 288.661 
-261.361 15.5488 315.614 
-215.849 68.8848 300.456 
-261.361 15.5488 315.614 
-238.593 43.3626 337.985 
-218.965 13.3609 355.593 
-188.865 -46.744 342.839 
-130.647 -13.527 381.994 
-218.965 13.3609 355.593 
-130.647 -13.527 381.994 
-155.842 26.1904 387.247 
-83.4633 32.4964 371.374 
-155.842 26.1904 387.247 
-130.647 -13.527 381.994 
-83.4633 32.4964 371.374 
-130.647 -13.527 381.994 
-84.9863 -14.5663 367.049 
-180.608 62.0848 365.886 
-145.711 79.9249 359.309 
-215.849 68.8848 300.456 
-180.608 62.0848 365.886 
-215.849 68.8848 300.456 
-238.593 43.3626 337.985 
-145.711 79.9249 359.309 
-180.608 62.0848 365.886 
-155.842 26.1904 387.247 
-145.711 79.9249 359.309 
-155.842 26.1904 387.247 
-83.4633 32.4964 371.374 
-261.361 15.5488 315.614 
-248.868 33.684 288.661 
-247.072 -5.18608 280.841 
-218.965 13.3609 355.593 
-261.361 15.5488 315.614 
-218.965 13.3609 355.593 
-209.404 -66.7509 320.044 
-188.865 -46.744 342.839 
-166.179 93.0677 203.175 
-102.778 88.7188 178.251 
-165.414 71.1302 197.132 
-209.404 -66.7509 320.044 
-164.82 -59.7831 324.733 
-188.865 -46.744 342.839 
-209.404 -66.7509 320.044 
-200.13 -78.0723 289.672 
-164.82 -59.7831 324.733 
-209.404 -66.7509 320.044 
-261.361 15.5488 315.614 
-247.072 -5.18608 280.841 
-209.404 -66.7509 320.044 
-247.072 -5.18608 280.841 
-200.13 -78.0723 289.672 
-53.0747 9.78361 207.756 
-60.4906 77.1219 206.672 
-14.735 38.0734 234.723 
-166.179 93.0677 203.175 
-108.641 121.653 248.09 
-89.0302 112.731 205.479 
-166.179 93.0677 203.175 
-89.0302 112.731 205.479 
-102.778 88.7188 178.251 
3 0 2 1 
3 39 40 31 
3 5 41 42 
3 43 44 3 
3 7 38 45 
3 46 47 4 
3 6 48 32 
3 49 50 9 
3 51 8 33 
3 52 53 54 
3 55 56 36 
3 57 58 28 
3 59 60 61 
3 62 63 10 
3 11 64 65 
3 66 67 12 
3 37 68 69 
3 70 71 13 
3 72 73 74 
3 75 76 77 
3 14 78 79 
3 80 81 15 
3 18 16 17 
3 82 83 30 
3 29 19 20 
3 84 85 86 
3 87 88 21 
3 89 90 23 
3 91 92 93 
3 24 25 26 
3 94 95 35 
3 27 96 97 
3 98 99 100 
3 101 102 103 
3 104 105 106 
3 107 108 109 
3 110 111 22 
3 112 113 114 
3 115 116 117 
3 118 119 120 
3 121 122 123 
3 124 125 126 
3 127 128 129 
3 130 131 132 
3 133 134 135 
3 136 137 138 
3 139 140 141 
3 142 143 144 
3 145 146 147 
3 148 149 150 
3 151 152 153 
3 154 155 156 
3 157 158 159 
3 160 161 162 
3 163 164 165 
3 166 167 168 
3 169 170 171 
3 172 173 174 
3 175 176 177 
3 178 179 180 
3 181 182 183 
3 184 185 186 
3 187 188 189 
3 190 191 192 
3 193 194 34 
3 195 196 197 
3 198 199 200 
3 201 202 203 
3 204 205 206 
3 207 208 209 
3 210 211 212 
3 213 214 215 
3 216 217 218 
3 219 220 221 
