ply
format ascii 1.0
comment VCGLIB generated
element vertex 264
property float x
property float y
property float z
element face 88
property list uchar int vertex_indices
end_header
245.328 39.0562 23.5475 
313.643 30.4366 -0.101692 
283.131 19.0463 21.9824 
249.69 -6.04586 13.9249 
346.997 44.0351 -42.7518 
323.569 10.637 -24.3332 
278.862 -0.485268 9.15872 
356.08 38.1094 -69.1524 
266.112 -17.9711 -28.8245 
312.919 -10.3815 -64.32 
327.451 -6.55761 -99.3756 
366.359 35.0336 -147.975 
331.169 28.5077 -155.758 
238.968 57.0355 5.97671 
194.961 46.0818 -28.4138 
366.987 55.8747 -134.857 
332.438 46.3655 -156.428 
330.458 60.3293 -148.792 
270.742 -17.8702 -75.7047 
193.165 -17.9711 -60.6781 
207.166 -17.8816 -100.715 
315.245 -7.49325 -122.187 
271.617 -0.540421 -140.36 
191.851 30.2561 -22.8106 
261.291 24.6679 -144.9 
174.985 34.2069 -64.3559 
182.738 49.174 -61.1658 
205.043 45.9578 -114.111 
189.956 20.7248 -98.389 
256.503 45.961 -132.036 
214.549 51.9421 -93.9612 
198.157 58.6823 -68.3008 
213.711 -17.6871 -14.3689 
272.684 54.2263 11.6187 
250.76 68.4253 -5.44451 
358.881 65.9304 -127.263 
322.612 72.1754 -140.99 
259.941 64.3076 -115.828 
343.808 61.3127 -84.0403 
368.752 56.2373 -106.697 
370.222 35.2785 -121.868 
327.992 73.7546 -111.778 
357.093 63.295 -102.702 
213.944 65.7142 -42.6521 
302.239 77.7546 -79.6021 
335.164 62.5011 -56.8518 
335.164 62.5011 -56.8518 
313.643 30.4366 -0.101692 
346.997 44.0351 -42.7518 
313.643 30.4366 -0.101692 
323.569 10.637 -24.3332 
313.643 30.4366 -0.101692 
278.862 -0.485268 9.15872 
313.643 30.4366 -0.101692 
283.131 19.0463 21.9824 
278.862 -0.485268 9.15872 
249.69 -6.04586 13.9249 
278.862 -0.485268 9.15872 
213.711 -17.6871 -14.3689 
323.569 10.637 -24.3332 
278.862 -0.485268 9.15872 
266.112 -17.9711 -28.8245 
323.569 10.637 -24.3332 
266.112 -17.9711 -28.8245 
312.919 -10.3815 -64.32 
331.169 28.5077 -155.758 
315.245 -7.49325 -122.187 
245.328 39.0562 23.5475 
194.961 46.0818 -28.4138 
245.328 39.0562 23.5475 
245.328 39.0562 23.5475 
191.851 30.2561 -22.8106 
213.711 -17.6871 -14.3689 
245.328 39.0562 23.5475 
213.711 -17.6871 -14.3689 
249.69 -6.04586 13.9249 
366.359 35.0336 -147.975 
331.169 28.5077 -155.758 
366.987 55.8747 -134.857 
331.169 28.5077 -155.758 
366.987 55.8747 -134.857 
332.438 46.3655 -156.428 
366.987 55.8747 -134.857 
330.458 60.3293 -148.792 
266.112 -17.9711 -28.8245 
270.742 -17.8702 -75.7047 
193.165 -17.9711 -60.6781 
315.245 -7.49325 -122.187 
270.742 -17.8702 -75.7047 
207.166 -17.8816 -100.715 
315.245 -7.49325 -122.187 
207.166 -17.8816 -100.715 
271.617 -0.540421 -140.36 
213.944 65.7142 -42.6521 
214.549 51.9421 -93.9612 
174.985 34.2069 -64.3559 
205.043 45.9578 -114.111 
189.956 20.7248 -98.389 
189.956 20.7248 -98.389 
261.291 24.6679 -144.9 
207.166 -17.8816 -100.715 
261.291 24.6679 -144.9 
271.617 -0.540421 -140.36 
207.166 -17.8816 -100.715 
191.851 30.2561 -22.8106 
194.961 46.0818 -28.4138 
182.738 49.174 -61.1658 
191.851 30.2561 -22.8106 
182.738 49.174 -61.1658 
174.985 34.2069 -64.3559 
191.851 30.2561 -22.8106 
174.985 34.2069 -64.3559 
193.165 -17.9711 -60.6781 
191.851 30.2561 -22.8106 
193.165 -17.9711 -60.6781 
213.711 -17.6871 -14.3689 
266.112 -17.9711 -28.8245 
213.711 -17.6871 -14.3689 
193.165 -17.9711 -60.6781 
174.985 34.2069 -64.3559 
189.956 20.7248 -98.389 
207.166 -17.8816 -100.715 
174.985 34.2069 -64.3559 
207.166 -17.8816 -100.715 
193.165 -17.9711 -60.6781 
272.684 54.2263 11.6187 
335.164 62.5011 -56.8518 
250.76 68.4253 -5.44451 
335.164 62.5011 -56.8518 
272.684 54.2263 11.6187 
250.76 68.4253 -5.44451 
238.968 57.0355 5.97671 
272.684 54.2263 11.6187 
238.968 57.0355 5.97671 
245.328 39.0562 23.5475 
358.881 65.9304 -127.263 
330.458 60.3293 -148.792 
327.992 73.7546 -111.778 
330.458 60.3293 -148.792 
335.164 62.5011 -56.8518 
346.997 44.0351 -42.7518 
356.08 38.1094 -69.1524 
335.164 62.5011 -56.8518 
356.08 38.1094 -69.1524 
356.08 38.1094 -69.1524 
271.617 -0.540421 -140.36 
261.291 24.6679 -144.9 
332.438 46.3655 -156.428 
271.617 -0.540421 -140.36 
332.438 46.3655 -156.428 
331.169 28.5077 -155.758 
261.291 24.6679 -144.9 
256.503 45.961 -132.036 
330.458 60.3293 -148.792 
261.291 24.6679 -144.9 
330.458 60.3293 -148.792 
332.438 46.3655 -156.428 
256.503 45.961 -132.036 
259.941 64.3076 -115.828 
322.612 72.1754 -140.99 
256.503 45.961 -132.036 
322.612 72.1754 -140.99 
330.458 60.3293 -148.792 
358.881 65.9304 -127.263 
368.752 56.2373 -106.697 
358.881 65.9304 -127.263 
368.752 56.2373 -106.697 
366.987 55.8747 -134.857 
366.987 55.8747 -134.857 
368.752 56.2373 -106.697 
370.222 35.2785 -121.868 
366.987 55.8747 -134.857 
370.222 35.2785 -121.868 
366.359 35.0336 -147.975 
213.944 65.7142 -42.6521 
194.961 46.0818 -28.4138 
238.968 57.0355 5.97671 
213.944 65.7142 -42.6521 
238.968 57.0355 5.97671 
250.76 68.4253 -5.44451 
256.503 45.961 -132.036 
189.956 20.7248 -98.389 
205.043 45.9578 -114.111 
205.043 45.9578 -114.111 
182.738 49.174 -61.1658 
198.157 58.6823 -68.3008 
205.043 45.9578 -114.111 
198.157 58.6823 -68.3008 
214.549 51.9421 -93.9612 
182.738 49.174 -61.1658 
194.961 46.0818 -28.4138 
213.944 65.7142 -42.6521 
182.738 49.174 -61.1658 
213.944 65.7142 -42.6521 
198.157 58.6823 -68.3008 
259.941 64.3076 -115.828 
256.503 45.961 -132.036 
205.043 45.9578 -114.111 
259.941 64.3076 -115.828 
205.043 45.9578 -114.111 
214.549 51.9421 -93.9612 
335.164 62.5011 -56.8518 
343.808 61.3127 -84.0403 
327.992 73.7546 -111.778 
335.164 62.5011 -56.8518 
327.992 73.7546 -111.778 
302.239 77.7546 -79.6021 
249.69 -6.04586 13.9249 
278.862 -0.485268 9.15872 
283.131 19.0463 21.9824 
356.08 38.1094 -69.1524 
368.752 56.2373 -106.697 
357.093 63.295 -102.702 
356.08 38.1094 -69.1524 
357.093 63.295 -102.702 
343.808 61.3127 -84.0403 
327.992 73.7546 -111.778 
343.808 61.3127 -84.0403 
357.093 63.295 -102.702 
327.992 73.7546 -111.778 
357.093 63.295 -102.702 
358.881 65.9304 -127.263 
270.742 -17.8702 -75.7047 
315.245 -7.49325 -122.187 
327.451 -6.55761 -99.3756 
270.742 -17.8702 -75.7047 
327.451 -6.55761 -99.3756 
312.919 -10.3815 -64.32 
315.245 -7.49325 -122.187 
366.359 35.0336 -147.975 
370.222 35.2785 -121.868 
315.245 -7.49325 -122.187 
370.222 35.2785 -121.868 
327.451 -6.55761 -99.3756 
266.112 -17.9711 -28.8245 
270.742 -17.8702 -75.7047 
312.919 -10.3815 -64.32 
370.222 35.2785 -121.868 
356.08 38.1094 -69.1524 
327.451 -6.55761 -99.3756 
302.239 77.7546 -79.6021 
327.992 73.7546 -111.778 
322.612 72.1754 -140.99 
302.239 77.7546 -79.6021 
322.612 72.1754 -140.99 
259.941 64.3076 -115.828 
283.131 19.0463 21.9824 
313.643 30.4366 -0.101692 
272.684 54.2263 11.6187 
283.131 19.0463 21.9824 
272.684 54.2263 11.6187 
245.328 39.0562 23.5475 
302.239 77.7546 -79.6021 
259.941 64.3076 -115.828 
213.944 65.7142 -42.6521 
302.239 77.7546 -79.6021 
213.944 65.7142 -42.6521 
250.76 68.4253 -5.44451 
323.569 10.637 -24.3332 
312.919 -10.3815 -64.32 
356.08 38.1094 -69.1524 
323.569 10.637 -24.3332 
356.08 38.1094 -69.1524 
346.997 44.0351 -42.7518 
3 45 33 1 
3 46 47 4 
3 0 3 2 
3 48 49 5 
3 6 50 51 
3 52 53 54 
3 7 9 10 
3 55 56 32 
3 57 58 8 
3 59 60 61 
3 62 63 64 
3 12 11 21 
3 65 66 22 
3 14 23 67 
3 68 69 13 
3 70 71 72 
3 73 74 75 
3 15 76 77 
3 78 79 16 
3 80 81 17 
3 82 83 35 
3 18 84 19 
3 85 86 20 
3 87 88 89 
3 90 91 92 
3 43 37 30 
3 93 94 31 
3 25 26 27 
3 95 96 28 
3 97 29 24 
3 98 99 100 
3 101 102 103 
3 104 105 106 
3 107 108 109 
3 110 111 112 
3 113 114 115 
3 116 117 118 
3 119 120 121 
3 122 123 124 
3 34 125 126 
3 127 128 44 
3 129 130 131 
3 132 133 134 
3 41 135 136 
3 137 138 36 
3 139 140 141 
3 142 143 38 
3 144 40 39 
3 145 146 147 
3 148 149 150 
3 151 152 153 
3 154 155 156 
3 157 158 159 
3 160 161 162 
3 163 42 164 
3 165 166 167 
3 168 169 170 
3 171 172 173 
3 174 175 176 
3 177 178 179 
3 180 181 182 
3 183 184 185 
3 186 187 188 
3 189 190 191 
3 192 193 194 
3 195 196 197 
3 198 199 200 
3 201 202 203 
3 204 205 206 
3 207 208 209 
3 210 211 212 
3 213 214 215 
3 216 217 218 
3 219 220 221 
3 222 223 224 
3 225 226 227 
3 228 229 230 
3 231 232 233 
3 234 235 236 
3 237 238 239 
3 240 241 242 
3 243 244 245 
3 246 247 248 
3 249 250 251 
3 252 253 254 
3 255 256 257 
3 258 259 260 
3 261 262 263 
