ply
format ascii 1.0
comment VCGLIB generated
element vertex 642
property float x
property float y
property float z
element face 1280
property list uchar int vertex_indices
end_header
0 0.850651 0.525731 
0 0.850651 -0.525731 
0 -0.850651 0.525731 
0 -0.850651 -0.525731 
0.850651 0.525731 0 
0.850651 -0.525731 0 
-0.850651 0.525731 0 
-0.850651 -0.525731 0 
0.525731 0 0.850651 
-0.525731 0 0.850651 
0.525731 0 -0.850651 
-0.525731 0 -0.850651 
0 1 0 
0.5 0.809017 0.309017 
0.5 0.809017 -0.309017 
-0.5 0.809017 -0.309017 
-0.5 0.809017 0.309017 
0 -1 0 
0.5 -0.809017 -0.309017 
0.5 -0.809017 0.309017 
-0.5 -0.809017 0.309017 
-0.5 -0.809017 -0.309017 
1 0 0 
0.809017 -0.309017 -0.5 
0.809017 0.309017 -0.5 
0.809017 0.309017 0.5 
0.809017 -0.309017 0.5 
-1 0 0 
-0.809017 -0.309017 0.5 
-0.809017 0.309017 0.5 
-0.809017 0.309017 -0.5 
-0.809017 -0.309017 -0.5 
0 0 1 
-0.309017 -0.5 0.809017 
0.309017 -0.5 0.809017 
0.309017 0.5 0.809017 
-0.309017 0.5 0.809017 
0 0 -1 
-0.309017 0.5 -0.809017 
0.309017 0.5 -0.809017 
0.309017 -0.5 -0.809017 
-0.309017 -0.5 -0.809017 
0.262866 0.951057 0.16246 
0.525731 0.850651 0 
0.262866 0.951057 -0.16246 
-0.262866 0.951057 -0.16246 
-0.525731 0.850651 0 
-0.262866 0.951057 0.16246 
0.262866 -0.951057 -0.16246 
0.525731 -0.850651 0 
0.262866 -0.951057 0.16246 
-0.262866 -0.951057 0.16246 
-0.525731 -0.850651 0 
-0.262866 -0.951057 -0.16246 
0.951057 -0.16246 -0.262866 
0.850651 0 -0.525731 
0.951057 0.16246 -0.262866 
0.951057 0.16246 0.262866 
0.850651 0 0.525731 
0.951057 -0.16246 0.262866 
-0.951057 -0.16246 0.262866 
-0.850651 0 0.525731 
-0.951057 0.16246 0.262866 
-0.951057 0.16246 -0.262866 
-0.850651 0 -0.525731 
-0.951057 -0.16246 -0.262866 
-0.16246 -0.262866 0.951057 
0 -0.525731 0.850651 
0.16246 -0.262866 0.951057 
0.16246 0.262866 0.951057 
0 0.525731 0.850651 
-0.16246 0.262866 0.951057 
-0.16246 0.262866 -0.951057 
0 0.525731 -0.850651 
0.16246 0.262866 -0.951057 
0.16246 -0.262866 -0.951057 
0 -0.525731 -0.850651 
-0.16246 -0.262866 -0.951057 
0.587785 0.425325 0.688191 
0.688191 0.587785 0.425325 
0.425325 0.688191 0.587785 
-0.688191 0.587785 0.425325 
-0.587785 0.425325 0.688191 
-0.425325 0.688191 0.587785 
0.688191 0.587785 -0.425325 
0.587785 0.425325 -0.688191 
0.425325 0.688191 -0.587785 
-0.587785 0.425325 -0.688191 
-0.688191 0.587785 -0.425325 
-0.425325 0.688191 -0.587785 
0.688191 -0.587785 0.425325 
0.587785 -0.425325 0.688191 
0.425325 -0.688191 0.587785 
-0.587785 -0.425325 0.688191 
-0.688191 -0.587785 0.425325 
-0.425325 -0.688191 0.587785 
0.587785 -0.425325 -0.688191 
0.688191 -0.587785 -0.425325 
0.425325 -0.688191 -0.587785 
-0.688191 -0.587785 -0.425325 
-0.587785 -0.425325 -0.688191 
-0.425325 -0.688191 -0.587785 
0 0.961938 -0.273267 
0.259892 0.862668 -0.433889 
0 0.961938 0.273267 
0.259892 0.862668 0.433889 
0.702046 0.69378 0.160622 
0.702046 0.69378 -0.160622 
-0.259892 0.862668 0.433889 
-0.259892 0.862668 -0.433889 
-0.702046 0.69378 -0.160622 
-0.702046 0.69378 0.160622 
0 -0.961938 0.273267 
0.259892 -0.862668 0.433889 
0 -0.961938 -0.273267 
0.259892 -0.862668 -0.433889 
0.702046 -0.69378 -0.160622 
0.702046 -0.69378 0.160622 
-0.259892 -0.862668 -0.433889 
-0.259892 -0.862668 0.433889 
-0.702046 -0.69378 0.160622 
-0.702046 -0.69378 -0.160622 
0.961938 0.273267 0 
0.862668 0.433889 -0.259892 
0.961938 -0.273267 0 
0.862668 -0.433889 -0.259892 
0.69378 -0.160622 -0.702046 
0.69378 0.160622 -0.702046 
0.862668 -0.433889 0.259892 
0.862668 0.433889 0.259892 
0.69378 0.160622 0.702046 
0.69378 -0.160622 0.702046 
-0.961938 0.273267 0 
-0.862668 0.433889 0.259892 
-0.961938 -0.273267 0 
-0.862668 -0.433889 0.259892 
-0.69378 -0.160622 0.702046 
-0.69378 0.160622 0.702046 
-0.862668 -0.433889 -0.259892 
-0.862668 0.433889 -0.259892 
-0.69378 0.160622 -0.702046 
-0.69378 -0.160622 -0.702046 
0.273267 0 0.961938 
0.433889 -0.259892 0.862668 
-0.273267 0 0.961938 
-0.433889 -0.259892 0.862668 
-0.160622 -0.702046 0.69378 
0.160622 -0.702046 0.69378 
-0.433889 0.259892 0.862668 
0.433889 0.259892 0.862668 
0.160622 0.702046 0.69378 
-0.160622 0.702046 0.69378 
0.273267 0 -0.961938 
0.433889 0.259892 -0.862668 
-0.273267 0 -0.961938 
-0.433889 0.259892 -0.862668 
-0.160622 0.702046 -0.69378 
0.160622 0.702046 -0.69378 
-0.433889 -0.259892 -0.862668 
0.433889 -0.259892 -0.862668 
0.160622 -0.702046 -0.69378 
-0.160622 -0.702046 -0.69378 
0.399607 0.912982 0.0823236 
0.399607 0.912982 -0.0823236 
0.266405 0.963861 0 
-0.399607 0.912982 -0.0823236 
-0.399607 0.912982 0.0823236 
-0.266405 0.963861 0 
0.399607 -0.912982 -0.0823236 
0.399607 -0.912982 0.0823236 
0.266405 -0.963861 0 
-0.399607 -0.912982 0.0823236 
-0.399607 -0.912982 -0.0823236 
-0.266405 -0.963861 0 
0.912982 -0.0823236 -0.399607 
0.912982 0.0823236 -0.399607 
0.963861 0 -0.266405 
0.912982 0.0823236 0.399607 
0.912982 -0.0823236 0.399607 
0.963861 0 0.266405 
-0.912982 -0.0823236 0.399607 
-0.912982 0.0823236 0.399607 
-0.963861 0 0.266405 
-0.912982 0.0823236 -0.399607 
-0.912982 -0.0823236 -0.399607 
-0.963861 0 -0.266405 
-0.0823236 -0.399607 0.912982 
0.0823236 -0.399607 0.912982 
0 -0.266405 0.963861 
0.0823236 0.399607 0.912982 
-0.0823236 0.399607 0.912982 
0 0.266405 0.963861 
-0.0823236 0.399607 -0.912982 
0.0823236 0.399607 -0.912982 
0 0.266405 -0.963861 
0.0823236 -0.399607 -0.912982 
-0.0823236 -0.399607 -0.912982 
0 -0.266405 -0.963861 
0.646578 0.513375 0.564254 
0.564254 0.646578 0.513375 
0.513375 0.564254 0.646578 
-0.646578 0.513375 0.564254 
-0.513375 0.564254 0.646578 
-0.564254 0.646578 0.513375 
0.646578 0.513375 -0.564254 
0.513375 0.564254 -0.646578 
0.564254 0.646578 -0.513375 
-0.646578 0.513375 -0.564254 
-0.564254 0.646578 -0.513375 
-0.513375 0.564254 -0.646578 
0.646578 -0.513375 0.564254 
0.513375 -0.564254 0.646578 
0.564254 -0.646578 0.513375 
-0.646578 -0.513375 0.564254 
-0.564254 -0.646578 0.513375 
-0.513375 -0.564254 0.646578 
0.646578 -0.513375 -0.564254 
0.564254 -0.646578 -0.513375 
0.513375 -0.564254 -0.646578 
-0.646578 -0.513375 -0.564254 
-0.513375 -0.564254 -0.646578 
-0.564254 -0.646578 -0.513375 
0.132792 0.966393 -0.220117 
0.264083 0.916244 -0.301259 
0.131655 0.924305 -0.358229 
0.131655 0.924305 0.358229 
0.264083 0.916244 0.301259 
0.132792 0.966393 0.220117 
0.62024 0.780204 0.0811418 
0.711282 0.702907 0 
0.62024 0.780204 -0.0811418 
-0.132792 0.966393 0.220117 
-0.264083 0.916244 0.301259 
-0.131655 0.924305 0.358229 
-0.131655 0.924305 -0.358229 
-0.264083 0.916244 -0.301259 
-0.132792 0.966393 -0.220117 
-0.62024 0.780204 -0.0811418 
-0.711282 0.702907 0 
-0.62024 0.780204 0.0811418 
0.132792 -0.966393 0.220117 
0.264083 -0.916244 0.301259 
0.131655 -0.924305 0.358229 
0.131655 -0.924305 -0.358229 
0.264083 -0.916244 -0.301259 
0.132792 -0.966393 -0.220117 
0.62024 -0.780204 -0.0811418 
0.711282 -0.702907 0 
0.62024 -0.780204 0.0811418 
-0.132792 -0.966393 -0.220117 
-0.264083 -0.916244 -0.301259 
-0.131655 -0.924305 -0.358229 
-0.131655 -0.924305 0.358229 
-0.264083 -0.916244 0.301259 
-0.132792 -0.966393 0.220117 
-0.62024 -0.780204 0.0811418 
-0.711282 -0.702907 0 
-0.62024 -0.780204 -0.0811418 
0.966393 0.220117 -0.132792 
0.916244 0.301259 -0.264083 
0.924305 0.358229 -0.131655 
0.924305 -0.358229 -0.131655 
0.916244 -0.301259 -0.264083 
0.966393 -0.220117 -0.132792 
0.780204 -0.0811418 -0.62024 
0.702907 0 -0.711282 
0.780204 0.0811418 -0.62024 
0.966393 -0.220117 0.132792 
0.916244 -0.301259 0.264083 
0.924305 -0.358229 0.131655 
0.924305 0.358229 0.131655 
0.916244 0.301259 0.264083 
0.966393 0.220117 0.132792 
0.780204 0.0811418 0.62024 
0.702907 0 0.711282 
0.780204 -0.0811418 0.62024 
-0.966393 0.220117 0.132792 
-0.916244 0.301259 0.264083 
-0.924305 0.358229 0.131655 
-0.924305 -0.358229 0.131655 
-0.916244 -0.301259 0.264083 
-0.966393 -0.220117 0.132792 
-0.780204 -0.0811418 0.62024 
-0.702907 0 0.711282 
-0.780204 0.0811418 0.62024 
-0.966393 -0.220117 -0.132792 
-0.916244 -0.301259 -0.264083 
-0.924305 -0.358229 -0.131655 
-0.924305 0.358229 -0.131655 
-0.916244 0.301259 -0.264083 
-0.966393 0.220117 -0.132792 
-0.780204 0.0811418 -0.62024 
-0.702907 0 -0.711282 
-0.780204 -0.0811418 -0.62024 
0.220117 -0.132792 0.966393 
0.301259 -0.264083 0.916244 
0.358229 -0.131655 0.924305 
-0.358229 -0.131655 0.924305 
-0.301259 -0.264083 0.916244 
-0.220117 -0.132792 0.966393 
-0.0811418 -0.62024 0.780204 
0 -0.711282 0.702907 
0.0811418 -0.62024 0.780204 
-0.220117 0.132792 0.966393 
-0.301259 0.264083 0.916244 
-0.358229 0.131655 0.924305 
0.358229 0.131655 0.924305 
0.301259 0.264083 0.916244 
0.220117 0.132792 0.966393 
0.0811418 0.62024 0.780204 
0 0.711282 0.702907 
-0.0811418 0.62024 0.780204 
0.220117 0.132792 -0.966393 
0.301259 0.264083 -0.916244 
0.358229 0.131655 -0.924305 
-0.358229 0.131655 -0.924305 
-0.301259 0.264083 -0.916244 
-0.220117 0.132792 -0.966393 
-0.0811418 0.62024 -0.780204 
0 0.711282 -0.702907 
0.0811418 0.62024 -0.780204 
-0.220117 -0.132792 -0.966393 
-0.301259 -0.264083 -0.916244 
-0.358229 -0.131655 -0.924305 
0.358229 -0.131655 -0.924305 
0.301259 -0.264083 -0.916244 
0.220117 -0.132792 -0.966393 
0.0811418 -0.62024 -0.780204 
0 -0.711282 -0.702907 
-0.0811418 -0.62024 -0.780204 
0.296005 0.70231 0.647412 
0.346153 0.783452 0.516122 
0.213023 0.792649 0.571252 
0.571252 0.213023 0.792649 
0.647412 0.296005 0.70231 
0.516122 0.346153 0.783452 
0.783452 0.516122 0.346153 
0.792649 0.571252 0.213023 
0.70231 0.647412 0.296005 
-0.346153 0.783452 0.516122 
-0.296005 0.70231 0.647412 
-0.213023 0.792649 0.571252 
-0.792649 0.571252 0.213023 
-0.783452 0.516122 0.346153 
-0.70231 0.647412 0.296005 
-0.647412 0.296005 0.70231 
-0.571252 0.213023 0.792649 
-0.516122 0.346153 0.783452 
0.346153 0.783452 -0.516122 
0.296005 0.70231 -0.647412 
0.213023 0.792649 -0.571252 
0.792649 0.571252 -0.213023 
0.783452 0.516122 -0.346153 
0.70231 0.647412 -0.296005 
0.647412 0.296005 -0.70231 
0.571252 0.213023 -0.792649 
0.516122 0.346153 -0.783452 
-0.296005 0.70231 -0.647412 
-0.346153 0.783452 -0.516122 
-0.213023 0.792649 -0.571252 
-0.571252 0.213023 -0.792649 
-0.647412 0.296005 -0.70231 
-0.516122 0.346153 -0.783452 
-0.783452 0.516122 -0.346153 
-0.792649 0.571252 -0.213023 
-0.70231 0.647412 -0.296005 
0.346153 -0.783452 0.516122 
0.296005 -0.70231 0.647412 
0.213023 -0.792649 0.571252 
0.792649 -0.571252 0.213023 
0.783452 -0.516122 0.346153 
0.70231 -0.647412 0.296005 
0.647412 -0.296005 0.70231 
0.571252 -0.213023 0.792649 
0.516122 -0.346153 0.783452 
-0.296005 -0.70231 0.647412 
-0.346153 -0.783452 0.516122 
-0.213023 -0.792649 0.571252 
-0.571252 -0.213023 0.792649 
-0.647412 -0.296005 0.70231 
-0.516122 -0.346153 0.783452 
-0.783452 -0.516122 0.346153 
-0.792649 -0.571252 0.213023 
-0.70231 -0.647412 0.296005 
0.296005 -0.70231 -0.647412 
0.346153 -0.783452 -0.516122 
0.213023 -0.792649 -0.571252 
0.571252 -0.213023 -0.792649 
0.647412 -0.296005 -0.70231 
0.516122 -0.346153 -0.783452 
0.783452 -0.516122 -0.346153 
0.792649 -0.571252 -0.213023 
0.70231 -0.647412 -0.296005 
-0.346153 -0.783452 -0.516122 
-0.296005 -0.70231 -0.647412 
-0.213023 -0.792649 -0.571252 
-0.792649 -0.571252 -0.213023 
-0.783452 -0.516122 -0.346153 
-0.70231 -0.647412 -0.296005 
-0.647412 -0.296005 -0.70231 
-0.571252 -0.213023 -0.792649 
-0.516122 -0.346153 -0.783452 
0.133071 0.987688 0.0822425 
0.133071 0.987688 -0.0822425 
0.386187 0.891007 0.238677 
0.519258 0.840178 0.156434 
0.519258 0.840178 -0.156434 
0.386187 0.891007 -0.238677 
-0.133071 0.987688 -0.0822425 
-0.133071 0.987688 0.0822425 
-0.386187 0.891007 -0.238677 
-0.519258 0.840178 -0.156434 
-0.519258 0.840178 0.156434 
-0.386187 0.891007 0.238677 
0.133071 -0.987688 -0.0822425 
0.133071 -0.987688 0.0822425 
0.386187 -0.891007 -0.238677 
0.519258 -0.840178 -0.156434 
0.519258 -0.840178 0.156434 
0.386187 -0.891007 0.238677 
-0.133071 -0.987688 0.0822425 
-0.133071 -0.987688 -0.0822425 
-0.386187 -0.891007 0.238677 
-0.519258 -0.840178 0.156434 
-0.519258 -0.840178 -0.156434 
-0.386187 -0.891007 -0.238677 
0.987688 -0.0822425 -0.133071 
0.987688 0.0822425 -0.133071 
0.891007 -0.238677 -0.386187 
0.840178 -0.156434 -0.519258 
0.840178 0.156434 -0.519258 
0.891007 0.238677 -0.386187 
0.987688 0.0822425 0.133071 
0.987688 -0.0822425 0.133071 
0.891007 0.238677 0.386187 
0.840178 0.156434 0.519258 
0.840178 -0.156434 0.519258 
0.891007 -0.238677 0.386187 
-0.987688 -0.0822425 0.133071 
-0.987688 0.0822425 0.133071 
-0.891007 -0.238677 0.386187 
-0.840178 -0.156434 0.519258 
-0.840178 0.156434 0.519258 
-0.891007 0.238677 0.386187 
-0.987688 0.0822425 -0.133071 
-0.987688 -0.0822425 -0.133071 
-0.891007 0.238677 -0.386187 
-0.840178 0.156434 -0.519258 
-0.840178 -0.156434 -0.519258 
-0.891007 -0.238677 -0.386187 
-0.0822425 -0.133071 0.987688 
0.0822425 -0.133071 0.987688 
-0.238677 -0.386187 0.891007 
-0.156434 -0.519258 0.840178 
0.156434 -0.519258 0.840178 
0.238677 -0.386187 0.891007 
0.0822425 0.133071 0.987688 
-0.0822425 0.133071 0.987688 
0.238677 0.386187 0.891007 
0.156434 0.519258 0.840178 
-0.156434 0.519258 0.840178 
-0.238677 0.386187 0.891007 
-0.0822425 0.133071 -0.987688 
0.0822425 0.133071 -0.987688 
-0.238677 0.386187 -0.891007 
-0.156434 0.519258 -0.840178 
0.156434 0.519258 -0.840178 
0.238677 0.386187 -0.891007 
0.0822425 -0.133071 -0.987688 
-0.0822425 -0.133071 -0.987688 
0.238677 -0.386187 -0.891007 
0.156434 -0.519258 -0.840178 
-0.156434 -0.519258 -0.840178 
-0.238677 -0.386187 -0.891007 
0.453991 0.46843 0.757935 
0.371748 0.601501 0.707107 
0.707107 0.371748 0.601501 
0.757935 0.453991 0.46843 
0.601501 0.707107 0.371748 
0.46843 0.757935 0.453991 
-0.601501 0.707107 0.371748 
-0.46843 0.757935 0.453991 
-0.757935 0.453991 0.46843 
-0.707107 0.371748 0.601501 
-0.453991 0.46843 0.757935 
-0.371748 0.601501 0.707107 
0.601501 0.707107 -0.371748 
0.46843 0.757935 -0.453991 
0.757935 0.453991 -0.46843 
0.707107 0.371748 -0.601501 
0.453991 0.46843 -0.757935 
0.371748 0.601501 -0.707107 
-0.453991 0.46843 -0.757935 
-0.371748 0.601501 -0.707107 
-0.707107 0.371748 -0.601501 
-0.757935 0.453991 -0.46843 
-0.601501 0.707107 -0.371748 
-0.46843 0.757935 -0.453991 
0.601501 -0.707107 0.371748 
0.46843 -0.757935 0.453991 
0.757935 -0.453991 0.46843 
0.707107 -0.371748 0.601501 
0.453991 -0.46843 0.757935 
0.371748 -0.601501 0.707107 
-0.453991 -0.46843 0.757935 
-0.371748 -0.601501 0.707107 
-0.707107 -0.371748 0.601501 
-0.757935 -0.453991 0.46843 
-0.601501 -0.707107 0.371748 
-0.46843 -0.757935 0.453991 
0.453991 -0.46843 -0.757935 
0.371748 -0.601501 -0.707107 
0.707107 -0.371748 -0.601501 
0.757935 -0.453991 -0.46843 
0.601501 -0.707107 -0.371748 
0.46843 -0.757935 -0.453991 
-0.601501 -0.707107 -0.371748 
-0.46843 -0.757935 -0.453991 
-0.757935 -0.453991 -0.46843 
-0.707107 -0.371748 -0.601501 
-0.453991 -0.46843 -0.757935 
-0.371748 -0.601501 -0.707107 
0 0.915043 -0.403355 
0.1312 0.864929 -0.484442 
0 0.990439 -0.137952 
0.383614 0.843911 -0.375039 
0 0.990439 0.137952 
0 0.915043 0.403355 
0.1312 0.864929 0.484442 
0.383614 0.843911 0.375039 
0.606825 0.758652 -0.237086 
0.606825 0.758652 0.237086 
0.783843 0.615642 0.0810863 
0.783843 0.615642 -0.0810863 
-0.1312 0.864929 0.484442 
-0.383614 0.843911 0.375039 
-0.1312 0.864929 -0.484442 
-0.383614 0.843911 -0.375039 
-0.606825 0.758652 0.237086 
-0.606825 0.758652 -0.237086 
-0.783843 0.615642 -0.0810863 
-0.783843 0.615642 0.0810863 
0 -0.915043 0.403355 
0.1312 -0.864929 0.484442 
0 -0.990439 0.137952 
0.383614 -0.843911 0.375039 
0 -0.990439 -0.137952 
0 -0.915043 -0.403355 
0.1312 -0.864929 -0.484442 
0.383614 -0.843911 -0.375039 
0.606825 -0.758652 0.237086 
0.606825 -0.758652 -0.237086 
0.783843 -0.615642 -0.0810863 
0.783843 -0.615642 0.0810863 
-0.1312 -0.864929 -0.484442 
-0.383614 -0.843911 -0.375039 
-0.1312 -0.864929 0.484442 
-0.383614 -0.843911 0.375039 
-0.606825 -0.758652 -0.237086 
-0.606825 -0.758652 0.237086 
-0.783843 -0.615642 0.0810863 
-0.783843 -0.615642 -0.0810863 
0.915043 0.403355 0 
0.864929 0.484442 -0.1312 
0.990439 0.137952 0 
0.843911 0.375039 -0.383614 
0.990439 -0.137952 0 
0.915043 -0.403355 0 
0.864929 -0.484442 -0.1312 
0.843911 -0.375039 -0.383614 
0.758652 0.237086 -0.606825 
0.758652 -0.237086 -0.606825 
0.615642 -0.0810863 -0.783843 
0.615642 0.0810863 -0.783843 
0.864929 -0.484442 0.1312 
0.843911 -0.375039 0.383614 
0.864929 0.484442 0.1312 
0.843911 0.375039 0.383614 
0.758652 -0.237086 0.606825 
0.758652 0.237086 0.606825 
0.615642 0.0810863 0.783843 
0.615642 -0.0810863 0.783843 
-0.915043 0.403355 0 
-0.864929 0.484442 0.1312 
-0.990439 0.137952 0 
-0.843911 0.375039 0.383614 
-0.990439 -0.137952 0 
-0.915043 -0.403355 0 
-0.864929 -0.484442 0.1312 
-0.843911 -0.375039 0.383614 
-0.758652 0.237086 0.606825 
-0.758652 -0.237086 0.606825 
-0.615642 -0.0810863 0.783843 
-0.615642 0.0810863 0.783843 
-0.864929 -0.484442 -0.1312 
-0.843911 -0.375039 -0.383614 
-0.864929 0.484442 -0.1312 
-0.843911 0.375039 -0.383614 
-0.758652 -0.237086 -0.606825 
-0.758652 0.237086 -0.606825 
-0.615642 0.0810863 -0.783843 
-0.615642 -0.0810863 -0.783843 
0.403355 0 0.915043 
0.484442 -0.1312 0.864929 
0.137952 0 0.990439 
0.375039 -0.383614 0.843911 
-0.137952 0 0.990439 
-0.403355 0 0.915043 
-0.484442 -0.1312 0.864929 
-0.375039 -0.383614 0.843911 
0.237086 -0.606825 0.758652 
-0.237086 -0.606825 0.758652 
-0.0810863 -0.783843 0.615642 
0.0810863 -0.783843 0.615642 
-0.484442 0.1312 0.864929 
-0.375039 0.383614 0.843911 
0.484442 0.1312 0.864929 
0.375039 0.383614 0.843911 
-0.237086 0.606825 0.758652 
0.237086 0.606825 0.758652 
0.0810863 0.783843 0.615642 
-0.0810863 0.783843 0.615642 
0.403355 0 -0.915043 
0.484442 0.1312 -0.864929 
0.137952 0 -0.990439 
0.375039 0.383614 -0.843911 
-0.137952 0 -0.990439 
-0.403355 0 -0.915043 
-0.484442 0.1312 -0.864929 
-0.375039 0.383614 -0.843911 
0.237086 0.606825 -0.758652 
-0.237086 0.606825 -0.758652 
-0.0810863 0.783843 -0.615642 
0.0810863 0.783843 -0.615642 
-0.484442 -0.1312 -0.864929 
-0.375039 -0.383614 -0.843911 
0.484442 -0.1312 -0.864929 
0.375039 -0.383614 -0.843911 
-0.237086 -0.606825 -0.758652 
0.237086 -0.606825 -0.758652 
0.0810863 -0.783843 -0.615642 
-0.0810863 -0.783843 -0.615642 
3 162 163 164 
3 165 166 167 
3 168 169 170 
3 171 172 173 
3 174 175 176 
3 177 178 179 
3 180 181 182 
3 183 184 185 
3 186 187 188 
3 189 190 191 
3 192 193 194 
3 195 196 197 
3 198 199 200 
3 201 202 203 
3 204 205 206 
3 207 208 209 
3 210 211 212 
3 213 214 215 
3 216 217 218 
3 219 220 221 
3 222 223 224 
3 225 226 227 
3 228 229 230 
3 231 232 233 
3 234 235 236 
3 237 238 239 
3 240 241 242 
3 243 244 245 
3 246 247 248 
3 249 250 251 
3 252 253 254 
3 255 256 257 
3 258 259 260 
3 261 262 263 
3 264 265 266 
3 267 268 269 
3 270 271 272 
3 273 274 275 
3 276 277 278 
3 279 280 281 
3 282 283 284 
3 285 286 287 
3 288 289 290 
3 291 292 293 
3 294 295 296 
3 297 298 299 
3 300 301 302 
3 303 304 305 
3 306 307 308 
3 309 310 311 
3 312 313 314 
3 315 316 317 
3 318 319 320 
3 321 322 323 
3 324 325 326 
3 327 328 329 
3 330 331 332 
3 333 334 335 
3 336 337 338 
3 339 340 341 
3 342 343 344 
3 345 346 347 
3 348 349 350 
3 351 352 353 
3 354 355 356 
3 357 358 359 
3 360 361 362 
3 363 364 365 
3 366 367 368 
3 369 370 371 
3 372 373 374 
3 375 376 377 
3 378 379 380 
3 381 382 383 
3 384 385 386 
3 387 388 389 
3 390 391 392 
3 393 394 395 
3 396 397 398 
3 399 400 401 
3 402 164 403 
3 404 405 162 
3 163 406 407 
3 408 167 409 
3 410 411 165 
3 166 412 413 
3 414 170 415 
3 416 417 168 
3 169 418 419 
3 420 173 421 
3 422 423 171 
3 172 424 425 
3 426 176 427 
3 428 429 174 
3 175 430 431 
3 432 179 433 
3 434 435 177 
3 178 436 437 
3 438 182 439 
3 440 441 180 
3 181 442 443 
3 444 185 445 
3 446 447 183 
3 184 448 449 
3 450 188 451 
3 452 453 186 
3 187 454 455 
3 456 191 457 
3 458 459 189 
3 190 460 461 
3 462 194 463 
3 464 465 192 
3 193 466 467 
3 468 197 469 
3 470 471 195 
3 196 472 473 
3 474 200 475 
3 476 477 198 
3 199 478 479 
3 480 203 481 
3 482 483 201 
3 202 484 485 
3 486 206 487 
3 488 489 204 
3 205 490 491 
3 492 209 493 
3 494 495 207 
3 208 496 497 
3 498 212 499 
3 500 501 210 
3 211 502 503 
3 504 215 505 
3 506 507 213 
3 214 508 509 
3 510 218 511 
3 512 513 216 
3 217 514 515 
3 516 221 517 
3 518 519 219 
3 220 520 521 
3 522 224 523 
3 524 403 222 
3 223 407 525 
3 526 227 402 
3 527 528 225 
3 226 529 404 
3 406 230 530 
3 405 531 228 
3 229 532 533 
3 527 233 534 
3 526 409 231 
3 232 413 535 
3 524 236 408 
3 522 536 234 
3 235 537 410 
3 412 239 538 
3 411 539 237 
3 238 540 541 
3 542 242 543 
3 544 415 240 
3 241 419 545 
3 546 245 414 
3 547 548 243 
3 244 549 416 
3 418 248 550 
3 417 551 246 
3 247 552 553 
3 547 251 554 
3 546 421 249 
3 250 425 555 
3 544 254 420 
3 542 556 252 
3 253 557 422 
3 424 257 558 
3 423 559 255 
3 256 560 561 
3 562 260 563 
3 564 427 258 
3 259 431 565 
3 566 263 426 
3 567 568 261 
3 262 569 428 
3 430 266 570 
3 429 571 264 
3 265 572 573 
3 567 269 574 
3 566 433 267 
3 268 437 575 
3 564 272 432 
3 562 576 270 
3 271 577 434 
3 436 275 578 
3 435 579 273 
3 274 580 581 
3 582 278 583 
3 584 439 276 
3 277 443 585 
3 586 281 438 
3 587 588 279 
3 280 589 440 
3 442 284 590 
3 441 591 282 
3 283 592 593 
3 587 287 594 
3 586 445 285 
3 286 449 595 
3 584 290 444 
3 582 596 288 
3 289 597 446 
3 448 293 598 
3 447 599 291 
3 292 600 601 
3 602 296 603 
3 604 451 294 
3 295 455 605 
3 606 299 450 
3 607 608 297 
3 298 609 452 
3 454 302 610 
3 453 611 300 
3 301 612 613 
3 607 305 614 
3 606 457 303 
3 304 461 615 
3 604 308 456 
3 602 616 306 
3 307 617 458 
3 460 311 618 
3 459 619 309 
3 310 620 621 
3 622 314 623 
3 624 463 312 
3 313 467 625 
3 626 317 462 
3 627 628 315 
3 316 629 464 
3 466 320 630 
3 465 631 318 
3 319 632 633 
3 627 323 634 
3 626 469 321 
3 322 473 635 
3 624 326 468 
3 622 636 324 
3 325 637 470 
3 472 329 638 
3 471 639 327 
3 328 640 641 
3 620 332 528 
3 619 475 330 
3 331 479 529 
3 617 335 474 
3 616 580 333 
3 334 579 476 
3 478 338 531 
3 477 577 336 
3 337 576 532 
3 534 341 621 
3 535 481 339 
3 340 485 618 
3 538 344 480 
3 541 583 342 
3 343 585 482 
3 484 347 615 
3 483 590 345 
3 346 593 614 
3 523 350 633 
3 525 487 348 
3 349 491 630 
3 530 353 486 
3 533 563 351 
3 352 565 488 
3 490 356 625 
3 489 570 354 
3 355 573 623 
3 632 359 536 
3 631 493 357 
3 358 497 537 
3 629 362 492 
3 628 600 360 
3 361 599 494 
3 496 365 539 
3 495 597 363 
3 364 596 540 
3 543 368 613 
3 545 499 366 
3 367 503 610 
3 550 371 498 
3 553 574 369 
3 370 575 500 
3 502 374 605 
3 501 578 372 
3 373 581 603 
3 612 377 556 
3 611 505 375 
3 376 509 557 
3 609 380 504 
3 608 592 378 
3 379 591 506 
3 508 383 559 
3 507 589 381 
3 382 588 560 
3 640 386 548 
3 639 511 384 
3 385 515 549 
3 637 389 510 
3 636 572 387 
3 388 571 512 
3 514 392 551 
3 513 569 390 
3 391 568 552 
3 554 395 641 
3 555 517 393 
3 394 521 638 
3 558 398 516 
3 561 594 396 
3 397 595 518 
3 520 401 635 
3 519 598 399 
3 400 601 634 
3 42 162 164 
3 162 43 163 
3 164 163 44 
3 45 165 167 
3 165 46 166 
3 167 166 47 
3 48 168 170 
3 168 49 169 
3 170 169 50 
3 51 171 173 
3 171 52 172 
3 173 172 53 
3 54 174 176 
3 174 55 175 
3 176 175 56 
3 57 177 179 
3 177 58 178 
3 179 178 59 
3 60 180 182 
3 180 61 181 
3 182 181 62 
3 63 183 185 
3 183 64 184 
3 185 184 65 
3 66 186 188 
3 186 67 187 
3 188 187 68 
3 69 189 191 
3 189 70 190 
3 191 190 71 
3 72 192 194 
3 192 73 193 
3 194 193 74 
3 75 195 197 
3 195 76 196 
3 197 196 77 
3 78 198 200 
3 198 79 199 
3 200 199 80 
3 81 201 203 
3 201 82 202 
3 203 202 83 
3 84 204 206 
3 204 85 205 
3 206 205 86 
3 87 207 209 
3 207 88 208 
3 209 208 89 
3 90 210 212 
3 210 91 211 
3 212 211 92 
3 93 213 215 
3 213 94 214 
3 215 214 95 
3 96 216 218 
3 216 97 217 
3 218 217 98 
3 99 219 221 
3 219 100 220 
3 221 220 101 
3 102 222 224 
3 222 44 223 
3 224 223 103 
3 104 225 227 
3 225 105 226 
3 227 226 42 
3 43 228 230 
3 228 106 229 
3 230 229 107 
3 104 231 233 
3 231 47 232 
3 233 232 108 
3 102 234 236 
3 234 109 235 
3 236 235 45 
3 46 237 239 
3 237 110 238 
3 239 238 111 
3 112 240 242 
3 240 50 241 
3 242 241 113 
3 114 243 245 
3 243 115 244 
3 245 244 48 
3 49 246 248 
3 246 116 247 
3 248 247 117 
3 114 249 251 
3 249 53 250 
3 251 250 118 
3 112 252 254 
3 252 119 253 
3 254 253 51 
3 52 255 257 
3 255 120 256 
3 257 256 121 
3 122 258 260 
3 258 56 259 
3 260 259 123 
3 124 261 263 
3 261 125 262 
3 263 262 54 
3 55 264 266 
3 264 126 265 
3 266 265 127 
3 124 267 269 
3 267 59 268 
3 269 268 128 
3 122 270 272 
3 270 129 271 
3 272 271 57 
3 58 273 275 
3 273 130 274 
3 275 274 131 
3 132 276 278 
3 276 62 277 
3 278 277 133 
3 134 279 281 
3 279 135 280 
3 281 280 60 
3 61 282 284 
3 282 136 283 
3 284 283 137 
3 134 285 287 
3 285 65 286 
3 287 286 138 
3 132 288 290 
3 288 139 289 
3 290 289 63 
3 64 291 293 
3 291 140 292 
3 293 292 141 
3 142 294 296 
3 294 68 295 
3 296 295 143 
3 144 297 299 
3 297 145 298 
3 299 298 66 
3 67 300 302 
3 300 146 301 
3 302 301 147 
3 144 303 305 
3 303 71 304 
3 305 304 148 
3 142 306 308 
3 306 149 307 
3 308 307 69 
3 70 309 311 
3 309 150 310 
3 311 310 151 
3 152 312 314 
3 312 74 313 
3 314 313 153 
3 154 315 317 
3 315 155 316 
3 317 316 72 
3 73 318 320 
3 318 156 319 
3 320 319 157 
3 154 321 323 
3 321 77 322 
3 323 322 158 
3 152 324 326 
3 324 159 325 
3 326 325 75 
3 76 327 329 
3 327 160 328 
3 329 328 161 
3 150 330 332 
3 330 80 331 
3 332 331 105 
3 149 333 335 
3 333 130 334 
3 335 334 78 
3 79 336 338 
3 336 129 337 
3 338 337 106 
3 108 339 341 
3 339 83 340 
3 341 340 151 
3 111 342 344 
3 342 133 343 
3 344 343 81 
3 82 345 347 
3 345 137 346 
3 347 346 148 
3 103 348 350 
3 348 86 349 
3 350 349 157 
3 107 351 353 
3 351 123 352 
3 353 352 84 
3 85 354 356 
3 354 127 355 
3 356 355 153 
3 156 357 359 
3 357 89 358 
3 359 358 109 
3 155 360 362 
3 360 140 361 
3 362 361 87 
3 88 363 365 
3 363 139 364 
3 365 364 110 
3 113 366 368 
3 366 92 367 
3 368 367 147 
3 117 369 371 
3 369 128 370 
3 371 370 90 
3 91 372 374 
3 372 131 373 
3 374 373 143 
3 146 375 377 
3 375 95 376 
3 377 376 119 
3 145 378 380 
3 378 136 379 
3 380 379 93 
3 94 381 383 
3 381 135 382 
3 383 382 120 
3 160 384 386 
3 384 98 385 
3 386 385 115 
3 159 387 389 
3 387 126 388 
3 389 388 96 
3 97 390 392 
3 390 125 391 
3 392 391 116 
3 118 393 395 
3 393 101 394 
3 395 394 161 
3 121 396 398 
3 396 138 397 
3 398 397 99 
3 100 399 401 
3 399 141 400 
3 401 400 158 
3 12 402 403 
3 402 42 164 
3 403 164 44 
3 42 404 162 
3 404 13 405 
3 162 405 43 
3 44 163 407 
3 163 43 406 
3 407 406 14 
3 12 408 409 
3 408 45 167 
3 409 167 47 
3 45 410 165 
3 410 15 411 
3 165 411 46 
3 47 166 413 
3 166 46 412 
3 413 412 16 
3 17 414 415 
3 414 48 170 
3 415 170 50 
3 48 416 168 
3 416 18 417 
3 168 417 49 
3 50 169 419 
3 169 49 418 
3 419 418 19 
3 17 420 421 
3 420 51 173 
3 421 173 53 
3 51 422 171 
3 422 20 423 
3 171 423 52 
3 53 172 425 
3 172 52 424 
3 425 424 21 
3 22 426 427 
3 426 54 176 
3 427 176 56 
3 54 428 174 
3 428 23 429 
3 174 429 55 
3 56 175 431 
3 175 55 430 
3 431 430 24 
3 22 432 433 
3 432 57 179 
3 433 179 59 
3 57 434 177 
3 434 25 435 
3 177 435 58 
3 59 178 437 
3 178 58 436 
3 437 436 26 
3 27 438 439 
3 438 60 182 
3 439 182 62 
3 60 440 180 
3 440 28 441 
3 180 441 61 
3 62 181 443 
3 181 61 442 
3 443 442 29 
3 27 444 445 
3 444 63 185 
3 445 185 65 
3 63 446 183 
3 446 30 447 
3 183 447 64 
3 65 184 449 
3 184 64 448 
3 449 448 31 
3 32 450 451 
3 450 66 188 
3 451 188 68 
3 66 452 186 
3 452 33 453 
3 186 453 67 
3 68 187 455 
3 187 67 454 
3 455 454 34 
3 32 456 457 
3 456 69 191 
3 457 191 71 
3 69 458 189 
3 458 35 459 
3 189 459 70 
3 71 190 461 
3 190 70 460 
3 461 460 36 
3 37 462 463 
3 462 72 194 
3 463 194 74 
3 72 464 192 
3 464 38 465 
3 192 465 73 
3 74 193 467 
3 193 73 466 
3 467 466 39 
3 37 468 469 
3 468 75 197 
3 469 197 77 
3 75 470 195 
3 470 40 471 
3 195 471 76 
3 77 196 473 
3 196 76 472 
3 473 472 41 
3 35 474 475 
3 474 78 200 
3 475 200 80 
3 78 476 198 
3 476 25 477 
3 198 477 79 
3 80 199 479 
3 199 79 478 
3 479 478 13 
3 16 480 481 
3 480 81 203 
3 481 203 83 
3 81 482 201 
3 482 29 483 
3 201 483 82 
3 83 202 485 
3 202 82 484 
3 485 484 36 
3 14 486 487 
3 486 84 206 
3 487 206 86 
3 84 488 204 
3 488 24 489 
3 204 489 85 
3 86 205 491 
3 205 85 490 
3 491 490 39 
3 38 492 493 
3 492 87 209 
3 493 209 89 
3 87 494 207 
3 494 30 495 
3 207 495 88 
3 89 208 497 
3 208 88 496 
3 497 496 15 
3 19 498 499 
3 498 90 212 
3 499 212 92 
3 90 500 210 
3 500 26 501 
3 210 501 91 
3 92 211 503 
3 211 91 502 
3 503 502 34 
3 33 504 505 
3 504 93 215 
3 505 215 95 
3 93 506 213 
3 506 28 507 
3 213 507 94 
3 95 214 509 
3 214 94 508 
3 509 508 20 
3 40 510 511 
3 510 96 218 
3 511 218 98 
3 96 512 216 
3 512 23 513 
3 216 513 97 
3 98 217 515 
3 217 97 514 
3 515 514 18 
3 21 516 517 
3 516 99 221 
3 517 221 101 
3 99 518 219 
3 518 31 519 
3 219 519 100 
3 101 220 521 
3 220 100 520 
3 521 520 41 
3 1 522 523 
3 522 102 224 
3 523 224 103 
3 102 524 222 
3 524 12 403 
3 222 403 44 
3 103 223 525 
3 223 44 407 
3 525 407 14 
3 12 526 402 
3 526 104 227 
3 402 227 42 
3 104 527 225 
3 527 0 528 
3 225 528 105 
3 42 226 404 
3 226 105 529 
3 404 529 13 
3 14 406 530 
3 406 43 230 
3 530 230 107 
3 43 405 228 
3 405 13 531 
3 228 531 106 
3 107 229 533 
3 229 106 532 
3 533 532 4 
3 0 527 534 
3 527 104 233 
3 534 233 108 
3 104 526 231 
3 526 12 409 
3 231 409 47 
3 108 232 535 
3 232 47 413 
3 535 413 16 
3 12 524 408 
3 524 102 236 
3 408 236 45 
3 102 522 234 
3 522 1 536 
3 234 536 109 
3 45 235 410 
3 235 109 537 
3 410 537 15 
3 16 412 538 
3 412 46 239 
3 538 239 111 
3 46 411 237 
3 411 15 539 
3 237 539 110 
3 111 238 541 
3 238 110 540 
3 541 540 6 
3 2 542 543 
3 542 112 242 
3 543 242 113 
3 112 544 240 
3 544 17 415 
3 240 415 50 
3 113 241 545 
3 241 50 419 
3 545 419 19 
3 17 546 414 
3 546 114 245 
3 414 245 48 
3 114 547 243 
3 547 3 548 
3 243 548 115 
3 48 244 416 
3 244 115 549 
3 416 549 18 
3 19 418 550 
3 418 49 248 
3 550 248 117 
3 49 417 246 
3 417 18 551 
3 246 551 116 
3 117 247 553 
3 247 116 552 
3 553 552 5 
3 3 547 554 
3 547 114 251 
3 554 251 118 
3 114 546 249 
3 546 17 421 
3 249 421 53 
3 118 250 555 
3 250 53 425 
3 555 425 21 
3 17 544 420 
3 544 112 254 
3 420 254 51 
3 112 542 252 
3 542 2 556 
3 252 556 119 
3 51 253 422 
3 253 119 557 
3 422 557 20 
3 21 424 558 
3 424 52 257 
3 558 257 121 
3 52 423 255 
3 423 20 559 
3 255 559 120 
3 121 256 561 
3 256 120 560 
3 561 560 7 
3 4 562 563 
3 562 122 260 
3 563 260 123 
3 122 564 258 
3 564 22 427 
3 258 427 56 
3 123 259 565 
3 259 56 431 
3 565 431 24 
3 22 566 426 
3 566 124 263 
3 426 263 54 
3 124 567 261 
3 567 5 568 
3 261 568 125 
3 54 262 428 
3 262 125 569 
3 428 569 23 
3 24 430 570 
3 430 55 266 
3 570 266 127 
3 55 429 264 
3 429 23 571 
3 264 571 126 
3 127 265 573 
3 265 126 572 
3 573 572 10 
3 5 567 574 
3 567 124 269 
3 574 269 128 
3 124 566 267 
3 566 22 433 
3 267 433 59 
3 128 268 575 
3 268 59 437 
3 575 437 26 
3 22 564 432 
3 564 122 272 
3 432 272 57 
3 122 562 270 
3 562 4 576 
3 270 576 129 
3 57 271 434 
3 271 129 577 
3 434 577 25 
3 26 436 578 
3 436 58 275 
3 578 275 131 
3 58 435 273 
3 435 25 579 
3 273 579 130 
3 131 274 581 
3 274 130 580 
3 581 580 8 
3 6 582 583 
3 582 132 278 
3 583 278 133 
3 132 584 276 
3 584 27 439 
3 276 439 62 
3 133 277 585 
3 277 62 443 
3 585 443 29 
3 27 586 438 
3 586 134 281 
3 438 281 60 
3 134 587 279 
3 587 7 588 
3 279 588 135 
3 60 280 440 
3 280 135 589 
3 440 589 28 
3 29 442 590 
3 442 61 284 
3 590 284 137 
3 61 441 282 
3 441 28 591 
3 282 591 136 
3 137 283 593 
3 283 136 592 
3 593 592 9 
3 7 587 594 
3 587 134 287 
3 594 287 138 
3 134 586 285 
3 586 27 445 
3 285 445 65 
3 138 286 595 
3 286 65 449 
3 595 449 31 
3 27 584 444 
3 584 132 290 
3 444 290 63 
3 132 582 288 
3 582 6 596 
3 288 596 139 
3 63 289 446 
3 289 139 597 
3 446 597 30 
3 31 448 598 
3 448 64 293 
3 598 293 141 
3 64 447 291 
3 447 30 599 
3 291 599 140 
3 141 292 601 
3 292 140 600 
3 601 600 11 
3 8 602 603 
3 602 142 296 
3 603 296 143 
3 142 604 294 
3 604 32 451 
3 294 451 68 
3 143 295 605 
3 295 68 455 
3 605 455 34 
3 32 606 450 
3 606 144 299 
3 450 299 66 
3 144 607 297 
3 607 9 608 
3 297 608 145 
3 66 298 452 
3 298 145 609 
3 452 609 33 
3 34 454 610 
3 454 67 302 
3 610 302 147 
3 67 453 300 
3 453 33 611 
3 300 611 146 
3 147 301 613 
3 301 146 612 
3 613 612 2 
3 9 607 614 
3 607 144 305 
3 614 305 148 
3 144 606 303 
3 606 32 457 
3 303 457 71 
3 148 304 615 
3 304 71 461 
3 615 461 36 
3 32 604 456 
3 604 142 308 
3 456 308 69 
3 142 602 306 
3 602 8 616 
3 306 616 149 
3 69 307 458 
3 307 149 617 
3 458 617 35 
3 36 460 618 
3 460 70 311 
3 618 311 151 
3 70 459 309 
3 459 35 619 
3 309 619 150 
3 151 310 621 
3 310 150 620 
3 621 620 0 
3 10 622 623 
3 622 152 314 
3 623 314 153 
3 152 624 312 
3 624 37 463 
3 312 463 74 
3 153 313 625 
3 313 74 467 
3 625 467 39 
3 37 626 462 
3 626 154 317 
3 462 317 72 
3 154 627 315 
3 627 11 628 
3 315 628 155 
3 72 316 464 
3 316 155 629 
3 464 629 38 
3 39 466 630 
3 466 73 320 
3 630 320 157 
3 73 465 318 
3 465 38 631 
3 318 631 156 
3 157 319 633 
3 319 156 632 
3 633 632 1 
3 11 627 634 
3 627 154 323 
3 634 323 158 
3 154 626 321 
3 626 37 469 
3 321 469 77 
3 158 322 635 
3 322 77 473 
3 635 473 41 
3 37 624 468 
3 624 152 326 
3 468 326 75 
3 152 622 324 
3 622 10 636 
3 324 636 159 
3 75 325 470 
3 325 159 637 
3 470 637 40 
3 41 472 638 
3 472 76 329 
3 638 329 161 
3 76 471 327 
3 471 40 639 
3 327 639 160 
3 161 328 641 
3 328 160 640 
3 641 640 3 
3 0 620 528 
3 620 150 332 
3 528 332 105 
3 150 619 330 
3 619 35 475 
3 330 475 80 
3 105 331 529 
3 331 80 479 
3 529 479 13 
3 35 617 474 
3 617 149 335 
3 474 335 78 
3 149 616 333 
3 616 8 580 
3 333 580 130 
3 78 334 476 
3 334 130 579 
3 476 579 25 
3 13 478 531 
3 478 79 338 
3 531 338 106 
3 79 477 336 
3 477 25 577 
3 336 577 129 
3 106 337 532 
3 337 129 576 
3 532 576 4 
3 0 534 621 
3 534 108 341 
3 621 341 151 
3 108 535 339 
3 535 16 481 
3 339 481 83 
3 151 340 618 
3 340 83 485 
3 618 485 36 
3 16 538 480 
3 538 111 344 
3 480 344 81 
3 111 541 342 
3 541 6 583 
3 342 583 133 
3 81 343 482 
3 343 133 585 
3 482 585 29 
3 36 484 615 
3 484 82 347 
3 615 347 148 
3 82 483 345 
3 483 29 590 
3 345 590 137 
3 148 346 614 
3 346 137 593 
3 614 593 9 
3 1 523 633 
3 523 103 350 
3 633 350 157 
3 103 525 348 
3 525 14 487 
3 348 487 86 
3 157 349 630 
3 349 86 491 
3 630 491 39 
3 14 530 486 
3 530 107 353 
3 486 353 84 
3 107 533 351 
3 533 4 563 
3 351 563 123 
3 84 352 488 
3 352 123 565 
3 488 565 24 
3 39 490 625 
3 490 85 356 
3 625 356 153 
3 85 489 354 
3 489 24 570 
3 354 570 127 
3 153 355 623 
3 355 127 573 
3 623 573 10 
3 1 632 536 
3 632 156 359 
3 536 359 109 
3 156 631 357 
3 631 38 493 
3 357 493 89 
3 109 358 537 
3 358 89 497 
3 537 497 15 
3 38 629 492 
3 629 155 362 
3 492 362 87 
3 155 628 360 
3 628 11 600 
3 360 600 140 
3 87 361 494 
3 361 140 599 
3 494 599 30 
3 15 496 539 
3 496 88 365 
3 539 365 110 
3 88 495 363 
3 495 30 597 
3 363 597 139 
3 110 364 540 
3 364 139 596 
3 540 596 6 
3 2 543 613 
3 543 113 368 
3 613 368 147 
3 113 545 366 
3 545 19 499 
3 366 499 92 
3 147 367 610 
3 367 92 503 
3 610 503 34 
3 19 550 498 
3 550 117 371 
3 498 371 90 
3 117 553 369 
3 553 5 574 
3 369 574 128 
3 90 370 500 
3 370 128 575 
3 500 575 26 
3 34 502 605 
3 502 91 374 
3 605 374 143 
3 91 501 372 
3 501 26 578 
3 372 578 131 
3 143 373 603 
3 373 131 581 
3 603 581 8 
3 2 612 556 
3 612 146 377 
3 556 377 119 
3 146 611 375 
3 611 33 505 
3 375 505 95 
3 119 376 557 
3 376 95 509 
3 557 509 20 
3 33 609 504 
3 609 145 380 
3 504 380 93 
3 145 608 378 
3 608 9 592 
3 378 592 136 
3 93 379 506 
3 379 136 591 
3 506 591 28 
3 20 508 559 
3 508 94 383 
3 559 383 120 
3 94 507 381 
3 507 28 589 
3 381 589 135 
3 120 382 560 
3 382 135 588 
3 560 588 7 
3 3 640 548 
3 640 160 386 
3 548 386 115 
3 160 639 384 
3 639 40 511 
3 384 511 98 
3 115 385 549 
3 385 98 515 
3 549 515 18 
3 40 637 510 
3 637 159 389 
3 510 389 96 
3 159 636 387 
3 636 10 572 
3 387 572 126 
3 96 388 512 
3 388 126 571 
3 512 571 23 
3 18 514 551 
3 514 97 392 
3 551 392 116 
3 97 513 390 
3 513 23 569 
3 390 569 125 
3 116 391 552 
3 391 125 568 
3 552 568 5 
3 3 554 641 
3 554 118 395 
3 641 395 161 
3 118 555 393 
3 555 21 517 
3 393 517 101 
3 161 394 638 
3 394 101 521 
3 638 521 41 
3 21 558 516 
3 558 121 398 
3 516 398 99 
3 121 561 396 
3 561 7 594 
3 396 594 138 
3 99 397 518 
3 397 138 595 
3 518 595 31 
3 41 520 635 
3 520 100 401 
3 635 401 158 
3 100 519 399 
3 519 31 598 
3 399 598 141 
3 158 400 634 
3 400 141 601 
3 634 601 11 
